<?xml version="1.0" encoding="UTF-8" standalone="no"?>
<!-- Generator: Adobe Illustrator 19.1.0, SVG Export Plug-In . SVG Version: 6.00 Build 0)  -->

<svg
   version="1.1"
   id="Layer_1"
   x="0px"
   y="0px"
   viewBox="0 0 186.19922 200"
   xml:space="preserve"
   sodipodi:docname="ngx-biocomp-white.svg"
   inkscape:version="1.3.2 (1:1.3.2+202311252150+091e20ef0f)"
   inkscape:export-filename="ngx-biocomp-up-white.png"
   inkscape:export-xdpi="98.300003"
   inkscape:export-ydpi="98.300003"
   width="186.19922"
   height="200"
   xmlns:inkscape="http://www.inkscape.org/namespaces/inkscape"
   xmlns:sodipodi="http://sodipodi.sourceforge.net/DTD/sodipodi-0.dtd"
   xmlns:xlink="http://www.w3.org/1999/xlink"
   xmlns="http://www.w3.org/2000/svg"
   xmlns:svg="http://www.w3.org/2000/svg"><defs
   id="defs21"><linearGradient
     inkscape:collect="always"
     id="linearGradient3954"><stop
       style="stop-color:#ffffff;stop-opacity:1;"
       offset="0"
       id="stop3950" /><stop
       style="stop-color:#ffffff;stop-opacity:0;"
       offset="1"
       id="stop3952" /></linearGradient><linearGradient
     inkscape:collect="always"
     xlink:href="#linearGradient3954"
     id="linearGradient3956"
     x1="31.900391"
     y1="130"
     x2="218.09961"
     y2="130"
     gradientUnits="userSpaceOnUse" /></defs><sodipodi:namedview
   id="namedview19"
   pagecolor="#505050"
   bordercolor="#eeeeee"
   borderopacity="1"
   inkscape:pageshadow="0"
   inkscape:pageopacity="0"
   inkscape:pagecheckerboard="0"
   showgrid="true"
   inkscape:snap-page="true"
   inkscape:snap-bbox="true"
   inkscape:bbox-paths="true"
   inkscape:bbox-nodes="true"
   inkscape:snap-grids="false"
   inkscape:zoom="1.564"
   inkscape:cx="75.44757"
   inkscape:cy="189.8977"
   inkscape:window-width="1850"
   inkscape:window-height="1016"
   inkscape:window-x="70"
   inkscape:window-y="27"
   inkscape:window-maximized="1"
   inkscape:current-layer="g16"
   inkscape:showpageshadow="2"
   inkscape:deskcolor="#d1d1d1"
   inkscape:export-bgcolor="#00000000"><inkscape:grid
     type="xygrid"
     id="grid23"
     snapvisiblegridlinesonly="false"
     enabled="true"
     originx="-31.900391"
     originy="-25"
     spacingy="1"
     spacingx="1"
     units="px"
     visible="true" /></sodipodi:namedview>
<style
   type="text/css"
   id="style2">
	.st0{fill:#FFFFFF;}
	.st1{opacity:0.9;}
</style>
<g
   id="g16"
   inkscape:label="shield"
   style="fill:#e6e6e6;fill-opacity:1"
   transform="translate(-31.90039,-25)"><g
   id="g1"
   inkscape:label="background"
   style="fill:#440064;fill-opacity:1"
   transform="translate(-5.0000001e-7,-5)"><path
     id="path623"
     style="fill:#ffffff;fill-opacity:1"
     class="st0"
     inkscape:label="left"
     d="M 125,30 31.900391,63.199219 46.099609,186.30078 125,230 203.90039,186.30078 218.09961,63.199219 Z m 28.05859,19.669922 c 2.36368,0.02739 4.63128,0.949206 6.4961,2.679687 3.18681,3.186189 3.69334,7.978992 1.2539,11.736329 -0.76917,1.186608 -1.38536,2.505028 -1.89062,3.867187 l 18.12891,18.128906 c 1.3839,-0.505289 2.70388,-1.121466 3.89062,-1.890625 3.7352,-2.4166 8.5458,-1.931702 11.66602,1.1875 2.02176,2.175548 2.94523,4.834939 2.68359,7.603516 -0.3299,2.878747 -1.89063,5.405041 -4.33008,6.943359 -9.88942,6.262719 -22.17058,7.251819 -31.48828,6.812499 0.4176,11.53605 -1.40646,26.41234 -11.36133,36.36719 -9.97578,9.95494 -24.85359,11.75768 -36.41211,11.31836 0.39496,9.42884 -0.59423,21.79963 -6.79101,31.55664 -0.37333,0.61547 -0.81334,1.14148 -1.29688,1.625 -1.82398,1.80218 -4.217983,2.72461 -6.613279,2.72461 -2.395309,0 -4.769792,-0.90065 -6.59375,-2.72461 -3.120857,-3.14185 -3.624995,-7.93213 -1.185547,-11.68945 0.351599,-0.5495 0.659427,-1.14334 0.966797,-1.73633 L 70.798828,154.79688 c -0.593739,0.28563 -1.186809,0.61717 -1.736328,0.96874 -1.604208,1.03305 -3.382637,1.53711 -5.140625,1.53711 -2.373428,0 -4.725146,-0.9224 -6.527344,-2.72461 -1.757938,-1.75813 -2.724609,-4.10879 -2.724609,-6.59179 0,-2.48377 0.988095,-4.83577 2.746094,-6.59375 0.505289,-0.48278 1.033973,-0.92355 1.626953,-1.29688 9.757,-6.19758 22.12954,-7.20663 31.55664,-6.78906 -0.439289,-11.5591 1.361547,-26.45724 11.316411,-36.412109 9.97579,-9.976606 24.85419,-11.779153 36.36914,-11.339843 -0.43928,-9.340541 0.56924,-21.645322 6.83203,-31.511719 1.53744,-2.439501 4.06483,-4.022707 6.92187,-4.330078 0.34063,-0.03289 0.68187,-0.04688 1.01953,-0.04297 z m -0.55664,4.263672 c -1.56008,0.176179 -2.94415,1.032632 -3.77929,2.373047 -5.80161,9.09681 -6.61534,20.743467 -6.1543,29.511718 4.681,0.39508 7.95626,1.055315 8.61523,1.208985 0.28561,0.04424 0.85559,0.153176 1.64649,0.285156 -0.59302,-7.163633 -0.45996,-17.951761 4.39648,-25.533203 1.31865,-2.06617 1.07678,-4.681041 -0.61523,-6.373047 -0.81257,-0.747437 -2.21944,-1.670559 -4.10938,-1.472656 z m 5.09766,18.722656 c -1.07724,5.582064 -0.81254,11.448153 -0.46094,15.162109 3.73566,0.35161 9.58081,0.593842 15.16211,-0.460937 z M 185.6582,86.9375 c -0.84592,0.06485 -1.69266,0.339484 -2.45898,0.833984 -8.61511,5.516011 -21.40318,4.967952 -28.25977,4.132813 -2.37341,-0.28561 -4.02123,-0.594583 -4.63672,-0.726563 -0.7475,-0.175409 -4.52595,-0.943591 -9.91015,-1.273437 -10.92193,-0.725069 -25.9311,0.417422 -35.49024,9.976562 -9.383606,9.405801 -10.436851,24.458261 -10.041012,33.687501 3.845805,0.3516 6.658272,0.87801 7.800782,1.09766 l 0.26367,0.0664 c 0.066,0 0.85813,0.15365 2.1543,0.35156 -0.61546,-8.37137 -0.13296,-20.98422 6.96484,-28.08203 8.21976,-8.218719 24.26043,-7.472727 30.78711,-6.76953 2.00014,0.19793 3.89024,0.48365 5.31836,0.79102 1.25282,0.2639 4.63637,0.92404 9.20703,1.2539 8.89913,0.68074 21.53574,0.19697 31.31446,-6.021481 1.34042,-0.835039 2.19712,-2.219681 2.35156,-3.78125 0.19717,-1.867538 -0.72668,-3.295484 -1.51758,-4.152343 -1.03036,-1.016281 -2.43779,-1.492856 -3.84766,-1.384766 z m -50.95898,17.20312 c -0.77315,0.0127 -1.57411,0.0423 -2.39258,0.0918 l 8.45898,8.45899 c 0.1754,-3.27466 0.0443,-6.26177 -0.10937,-8.34961 -1.5659,-0.13158 -3.63758,-0.23935 -5.95703,-0.20118 z m -7.84375,0.66211 c -3.62607,0.61547 -7.16404,1.75903 -9.95508,3.71485 l 19.55859,19.55664 c 1.95597,-2.76936 3.09743,-6.32885 3.7129,-9.95508 z m 18.13086,0.002 c 0.5053,7.51543 0.22008,20.8756 -7.00977,28.10547 -7.86664,7.86697 -22.63568,7.60295 -30.74414,6.74609 -2.50545,-0.26389 -4.61561,-0.63633 -5.38476,-0.8125 -1.23019,-0.24215 -4.591643,-0.85765 -9.140629,-1.1875 -8.987421,-0.63715 -21.734029,-0.11102 -31.380859,5.99805 -0.32985,0.19792 -0.615017,0.43924 -0.878906,0.70312 -0.966319,0.96631 -1.494141,2.24324 -1.494141,3.60547 0,1.36222 0.528077,2.6355 1.472656,3.58008 1.692129,1.69201 4.306102,1.95759 6.34961,0.61719 8.547941,-5.4711 21.381297,-4.92277 28.28125,-4.10938 2.790997,0.32986 4.570718,0.68133 4.636718,0.70313 0.747331,0.15367 4.548811,0.94458 9.888671,1.25195 8.96631,0.57135 25.46916,0.0875 35.51172,-9.95508 l 0.002,0.002 c 9.03208,-9.03156 10.54794,-22.94252 10.10938,-33.6875 -3.89013,-0.37409 -6.74711,-0.92463 -7.91211,-1.16601 -0.65962,-0.13196 -1.4498,-0.26255 -2.30664,-0.39453 z m -31.16211,6.67969 c -2.04364,2.70255 -3.23067,6.17374 -3.91211,9.77734 l 13.82227,13.82226 c 3.62625,-0.65903 7.07694,-1.88812 9.75781,-3.93164 z m -4.54883,15.1621 c -0.19789,3.38405 -0.0651,6.54826 0.13281,8.94336 2.61486,0.19718 5.73472,0.32996 8.94336,0.13282 z m -24.781249,25.16211 c -3.065497,0.1044 -6.277892,0.47299 -9.277344,1.29688 l 16.677734,16.65625 c 1.64777,-5.99893 1.450082,-12.8756 0.988281,-17.66602 -2.406142,-0.2309 -5.323174,-0.3915 -8.388671,-0.28711 z m 12.71875,0.85743 c 0.593788,7.18551 0.461498,17.99805 -4.373047,25.53515 -1.31866,2.04373 -1.076774,4.65759 0.615234,6.34961 1.977698,1.9559 5.186365,1.95621 7.164062,-0.0215 0.28524,-0.28525 0.50525,-0.57107 0.72461,-0.90039 5.69069,-8.98724 6.52693,-20.67906 6.10937,-29.49024 -4.65932,-0.37334 -7.93378,-1.03381 -8.615229,-1.1875 0,0 -0.591961,-0.13146 -1.625,-0.28515 z" /><path
     id="path623-3"
     style="opacity:0.3;fill:#000000;fill-opacity:1"
     class="st0"
     inkscape:label="right"
     d="m 125,30 v 56.240234 c 4.60518,-0.689436 9.16269,-0.842824 13.28516,-0.685546 -0.43928,-9.340541 0.5712,-21.645319 6.83398,-31.511719 1.53744,-2.439498 4.06288,-4.022709 6.91992,-4.330078 2.72502,-0.26312 5.38441,0.65902 7.51563,2.636718 3.18681,3.186187 3.69334,7.978992 1.2539,11.736329 -0.76917,1.186608 -1.38536,2.505028 -1.89062,3.867187 l 18.12891,18.128906 c 1.3839,-0.505289 2.70388,-1.121466 3.89062,-1.890625 3.7352,-2.4166 8.5458,-1.931702 11.66602,1.1875 2.02176,2.175548 2.94523,4.834939 2.68359,7.603516 -0.3299,2.878747 -1.89063,5.405041 -4.33008,6.943359 -9.88942,6.262729 -22.17058,7.251819 -31.48828,6.812499 0.4176,11.53605 -1.40646,26.41234 -11.36133,36.36719 -6.40713,6.39375 -14.83416,9.40126 -23.10742,10.63476 V 230 l 78.90039,-43.69922 14.19922,-123.101561 z m 27.50195,23.933594 c -1.56008,0.17617 -2.94415,1.032628 -3.77929,2.373047 -5.80161,9.096811 -6.61534,20.74542 -6.1543,29.513671 4.681,0.39508 7.95626,1.053362 8.61523,1.207032 0.28561,0.04424 0.85559,0.155129 1.64649,0.287109 -0.59302,-7.163633 -0.45996,-17.953714 4.39648,-25.535156 1.31865,-2.066168 1.07678,-4.681039 -0.61523,-6.373047 -0.81257,-0.747439 -2.21944,-1.670566 -4.10938,-1.472656 z m 5.09766,18.722656 c -1.07724,5.582064 -0.81254,11.448153 -0.46094,15.162109 3.73566,0.35161 9.58081,0.593842 15.16211,-0.460937 z M 185.6582,86.9375 c -0.84592,0.06485 -1.69266,0.339484 -2.45898,0.833984 -8.61511,5.516005 -21.40318,4.967952 -28.25977,4.132813 -2.37341,-0.28561 -4.02123,-0.59263 -4.63672,-0.724609 -0.7475,-0.17541 -4.52595,-0.945551 -9.91015,-1.275391 C 135.75512,89.596432 130.38088,89.635109 125,90.501953 v 10.287107 c 6.88536,-1.382257 13.99852,-0.96967 17.83203,-0.55664 2.00014,0.19793 3.89024,0.48365 5.31836,0.79102 1.25282,0.2639 4.63832,0.92404 9.20899,1.2539 8.89913,0.68074 21.53378,0.19698 31.3125,-6.021481 1.34042,-0.835039 2.19712,-2.219681 2.35156,-3.78125 0.19717,-1.867538 -0.72668,-3.295484 -1.51758,-4.152343 -1.03036,-1.016281 -2.43779,-1.492856 -3.84766,-1.384766 z m -50.95898,17.20312 c -0.77315,0.0127 -1.57411,0.0423 -2.39258,0.0918 l 8.45898,8.46094 c 0.1754,-3.27466 0.0443,-6.26372 -0.10937,-8.35156 -1.5659,-0.13158 -3.63758,-0.23935 -5.95703,-0.20118 z m -7.84375,0.66211 c -0.62449,0.106 -1.23958,0.24994 -1.85547,0.38868 v 11.42578 l 11.45898,11.45703 c 1.95597,-2.76936 3.09743,-6.3269 3.7129,-9.95313 z m 18.13086,0.002 c 0.5053,7.51543 0.22008,20.8756 -7.00977,28.10547 -3.40061,3.40075 -8.09213,5.27718 -12.97656,6.24804 v 10.19336 c 7.1008,-1.1558 14.57444,-3.77951 20.0957,-9.30078 9.03117,-9.03159 10.54792,-22.94097 10.10938,-33.68555 -3.89013,-0.37409 -6.74711,-0.92463 -7.91211,-1.16601 -0.65962,-0.13196 -1.4498,-0.26255 -2.30664,-0.39453 z M 125,122.66016 v 12.13867 c 3.15364,-0.70332 6.12815,-1.84447 8.49219,-3.64649 z" /></g>
	
	
</g>
</svg>
