<?xml version="1.0" standalone="no"?>
<!DOCTYPE svg PUBLIC "-//W3C//DTD SVG 20010904//EN"
 "http://www.w3.org/TR/2001/REC-SVG-20010904/DTD/svg10.dtd">
<svg version="1.0" xmlns="http://www.w3.org/2000/svg"
 width="945.000000pt" height="945.000000pt" viewBox="0 0 945.000000 945.000000"
 preserveAspectRatio="xMidYMid meet">
<metadata>
Created by potrace 1.14, written by Peter Selinger 2001-2017
</metadata>
<g transform="translate(0.000000,945.000000) scale(0.100000,-0.100000)"
fill="#000000" stroke="none">
<path d="M4705 8499 c-11 -5 -249 -90 -530 -190 -486 -172 -1179 -419 -1289
-459 -129 -47 -507 -181 -1356 -483 -350 -125 -331 -117 -326 -126 2 -3 7 -42
11 -86 4 -44 9 -82 10 -85 2 -3 6 -39 10 -79 4 -41 9 -84 11 -95 2 -11 6 -50
9 -86 3 -36 8 -76 10 -90 2 -14 7 -50 10 -80 3 -30 8 -66 10 -80 3 -14 7 -54
10 -90 4 -36 8 -76 10 -90 2 -14 7 -54 10 -90 3 -36 8 -72 10 -80 2 -8 6 -46
10 -85 3 -38 8 -77 10 -85 2 -8 7 -51 10 -95 4 -44 8 -82 10 -85 2 -3 6 -36 9
-75 4 -38 13 -122 21 -185 7 -63 16 -142 20 -175 4 -33 8 -73 10 -90 3 -16 11
-93 20 -170 9 -77 18 -156 20 -175 3 -19 7 -55 10 -80 3 -25 8 -67 11 -95 3
-27 7 -61 9 -75 2 -24 12 -108 20 -175 2 -16 9 -77 15 -135 6 -58 13 -116 15
-130 2 -14 7 -52 10 -85 3 -33 7 -71 9 -85 3 -14 7 -52 11 -85 3 -33 8 -71 10
-85 2 -14 7 -52 10 -85 8 -85 15 -145 20 -185 2 -19 7 -57 10 -85 11 -96 15
-130 20 -165 2 -19 6 -55 9 -80 3 -25 8 -72 11 -105 4 -33 8 -71 10 -85 2 -14
7 -52 10 -85 3 -33 8 -71 10 -85 3 -23 10 -84 20 -170 20 -172 29 -231 39
-238 6 -5 43 -26 81 -47 39 -21 75 -41 80 -45 6 -4 51 -29 100 -55 50 -27 108
-59 130 -71 22 -13 58 -32 80 -44 128 -70 182 -100 291 -161 67 -38 124 -69
127 -69 4 0 28 -14 54 -30 26 -17 54 -28 61 -25 7 2 11 1 7 -4 -3 -5 7 -16 22
-24 16 -7 55 -29 88 -47 33 -18 83 -45 110 -60 65 -35 142 -78 180 -100 17
-10 57 -32 90 -50 33 -18 80 -44 105 -58 25 -14 75 -42 111 -61 37 -20 102
-56 145 -80 44 -24 104 -58 134 -74 30 -16 60 -33 65 -37 6 -4 42 -24 80 -45
39 -21 90 -49 115 -63 25 -14 69 -38 98 -54 28 -16 52 -26 52 -22 0 4 6 1 13
-8 6 -8 41 -31 77 -49 36 -19 67 -37 68 -41 2 -5 8 -8 14 -8 5 0 54 -25 109
-56 54 -31 103 -53 109 -49 6 4 9 1 8 -7 -2 -7 5 -12 15 -12 10 1 16 -1 13 -4
-5 -5 17 -21 54 -38 8 -4 32 -18 52 -31 21 -13 40 -18 43 -13 3 5 26 18 50 29
25 11 45 25 45 31 0 6 4 9 8 6 5 -3 24 5 43 17 19 11 36 22 39 22 24 6 58 30
53 38 -3 6 -1 7 6 3 6 -4 17 -3 24 2 11 9 53 32 197 110 36 20 67 39 68 44 2
4 11 8 21 8 9 0 21 4 26 9 6 5 26 18 45 28 19 11 62 35 95 53 33 18 80 45 105
58 25 14 54 30 65 36 11 6 28 17 38 25 9 8 17 10 17 5 0 -5 4 -4 8 1 4 6 18
16 32 23 14 7 57 30 95 51 39 22 94 52 123 67 28 15 52 31 52 36 0 4 6 8 14 8
19 0 76 33 76 43 0 5 4 6 9 2 5 -3 15 1 23 8 7 7 22 17 34 22 83 39 362 200
358 206 -3 5 2 6 10 3 9 -3 16 -1 16 6 0 6 4 9 9 5 5 -3 17 2 25 11 9 8 16 12
16 7 0 -4 7 1 16 12 8 11 18 19 22 18 11 -4 62 21 62 29 0 5 7 8 15 8 8 0 15
5 15 12 0 6 3 8 6 5 11 -11 46 14 40 28 -3 8 0 17 6 21 6 4 8 3 4 -4 -10 -17
14 -25 32 -10 20 16 51 33 115 65 26 13 45 28 42 33 -3 5 4 7 16 5 14 -3 19 0
16 9 -4 9 0 12 13 9 10 -3 27 4 38 15 11 11 23 18 26 14 3 -3 6 -1 6 5 0 5 6
10 13 10 18 0 138 69 131 75 -3 3 3 5 13 4 10 0 17 5 15 12 -1 8 1 11 6 8 12
-7 80 28 99 51 8 10 12 12 8 6 -8 -17 27 -4 38 14 4 7 15 13 22 13 8 0 15 4
15 10 0 5 3 9 8 8 13 -4 52 13 52 23 0 5 7 9 16 9 11 0 14 5 9 18 -5 13 -3 14
6 5 9 -9 21 -7 50 9 22 11 36 24 33 29 -3 5 2 6 11 3 8 -4 22 0 31 7 9 7 26
18 37 24 24 12 42 85 25 96 -7 4 -7 8 0 10 15 5 22 79 8 79 -7 0 -7 3 1 8 6 4
14 36 18 72 4 36 9 67 11 69 2 2 -2 11 -9 19 -9 13 -9 14 1 8 8 -5 12 1 13 21
1 30 4 54 15 148 4 33 8 79 8 102 1 24 3 43 6 43 6 0 9 23 14 111 2 26 6 51
10 57 3 6 2 14 -4 17 -7 4 -8 11 -2 18 6 7 13 39 17 72 3 33 8 74 10 90 3 17
7 53 10 80 2 28 6 59 9 70 2 11 -2 26 -8 34 -8 11 -8 13 0 8 8 -5 14 14 19 61
9 88 14 132 21 160 3 18 1 22 -8 16 -10 -6 -10 -4 1 9 7 9 11 23 8 31 -3 8 -3
17 1 21 3 3 7 16 8 28 1 12 5 51 9 87 4 36 9 85 10 108 2 24 6 46 9 49 3 4 0
13 -7 21 -10 13 -9 14 2 8 11 -7 13 0 9 32 -2 22 0 38 4 36 5 -3 8 14 9 38 0
24 2 50 3 58 2 8 7 47 11 85 4 39 9 86 11 105 12 88 14 109 19 175 2 39 5 70
5 70 4 0 16 83 26 175 3 30 7 66 9 79 6 34 19 171 19 204 1 15 3 27 6 27 3 0
6 8 6 18 1 20 13 145 19 195 3 19 7 54 10 78 2 24 8 69 12 99 3 30 7 70 7 87
1 18 3 33 6 33 3 0 5 10 6 23 0 12 4 54 8 92 4 39 10 88 11 110 2 21 6 53 9
70 9 49 19 156 20 207 1 28 5 44 11 40 5 -3 3 3 -5 13 -9 11 -10 16 -2 11 12
-7 13 -3 17 110 1 28 5 55 8 60 3 5 8 38 11 74 4 36 9 81 11 100 3 19 7 58 10
85 3 28 8 66 10 85 3 19 7 59 10 89 3 29 8 57 10 61 3 4 -43 25 -103 45 -59
21 -120 43 -137 50 -16 8 -43 17 -60 21 -16 4 -34 10 -40 14 -5 5 -32 15 -60
23 -43 14 -178 62 -225 80 -8 3 -46 17 -85 31 -38 13 -128 45 -199 70 -71 25
-133 43 -139 39 -5 -3 -7 -2 -4 3 3 6 -15 16 -41 24 -26 7 -54 17 -62 21 -15
7 -185 69 -205 73 -5 2 -23 8 -38 14 -16 7 -33 12 -38 12 -5 0 -17 4 -27 10
-9 5 -82 32 -162 60 -80 28 -167 60 -195 70 -27 10 -122 44 -210 75 -159 56
-238 85 -640 229 -115 41 -273 97 -350 124 -120 43 -315 113 -460 165 -25 9
-47 11 -60 6z m3409 -1367 c3 -5 -1 -9 -9 -9 -8 0 -12 4 -9 9 3 4 7 8 9 8 2 0
6 -4 9 -8z m-620 -40 c3 -5 -1 -9 -9 -9 -8 0 -12 4 -9 9 3 4 7 8 9 8 2 0 6 -4
9 -8z m-89 -161 c3 -5 2 -12 -3 -15 -5 -3 -9 1 -9 9 0 17 3 19 12 6z m505
-355 c0 -2 -7 -7 -16 -10 -8 -3 -12 -2 -9 4 6 10 25 14 25 6z m-1226 -604 c3
-5 -1 -9 -9 -9 -8 0 -12 4 -9 9 3 4 7 8 9 8 2 0 6 -4 9 -8z m1366 2 c0 -8 -19
-13 -24 -6 -3 5 1 9 9 9 8 0 15 -2 15 -3z m-500 -40 c0 -8 -19 -13 -24 -6 -3
5 1 9 9 9 8 0 15 -2 15 -3z m371 -91 c13 -16 12 -17 -3 -4 -10 7 -18 15 -18
17 0 8 8 3 21 -13z m-107 -271 c3 -5 -1 -9 -9 -9 -8 0 -12 4 -9 9 3 4 7 8 9 8
2 0 6 -4 9 -8z m69 -117 c-3 -9 -8 -14 -10 -11 -3 3 -2 9 2 15 9 16 15 13 8
-4z m122 -133 c-3 -3 -11 0 -18 7 -9 10 -8 11 6 5 10 -3 15 -9 12 -12z m-585
-308 c0 -8 -19 -13 -24 -6 -3 5 1 9 9 9 8 0 15 -2 15 -3z m-80 -80 c0 -8 -19
-13 -24 -6 -3 5 1 9 9 9 8 0 15 -2 15 -3z m-215 -233 c3 -5 2 -12 -3 -15 -5
-3 -9 1 -9 9 0 17 3 19 12 6z m285 -35 c0 -2 -8 -10 -17 -17 -16 -13 -17 -12
-4 4 13 16 21 21 21 13z m475 -16 c3 -5 1 -10 -4 -10 -6 0 -11 5 -11 10 0 6 2
10 4 10 3 0 8 -4 11 -10z m-1370 -320 c3 -6 -1 -7 -9 -4 -18 7 -21 14 -7 14 6
0 13 -4 16 -10z m332 -35 c0 -8 -4 -12 -9 -9 -5 3 -6 10 -3 15 9 13 12 11 12
-6z m369 -7 c3 -4 -1 -5 -10 -4 -8 1 -18 5 -22 8 -3 4 1 5 10 4 8 -1 18 -5 22
-8z m625 -11 c-10 -9 -11 -8 -5 6 3 10 9 15 12 12 3 -3 0 -11 -7 -18z m-551
-27 c0 -5 -5 -10 -11 -10 -5 0 -7 5 -4 10 3 6 8 10 11 10 2 0 4 -4 4 -10z
m-527 -395 c-3 -9 -8 -14 -10 -11 -3 3 -2 9 2 15 9 16 15 13 8 -4z m927 -4 c0
-6 -4 -12 -8 -15 -5 -3 -9 1 -9 9 0 8 4 15 9 15 4 0 8 -4 8 -9z m-2605 -120
c3 -5 2 -12 -3 -15 -5 -3 -9 1 -9 9 0 17 3 19 12 6z m1365 -35 c0 -2 -7 -7
-16 -10 -8 -3 -12 -2 -9 4 6 10 25 14 25 6z m-1446 -44 c3 -5 -1 -9 -9 -9 -8
0 -12 4 -9 9 3 4 7 8 9 8 2 0 6 -4 9 -8z m1526 -42 c0 -5 -2 -10 -4 -10 -3 0
-8 5 -11 10 -3 6 -1 10 4 10 6 0 11 -4 11 -10z m-165 -29 c3 -5 2 -12 -3 -15
-5 -3 -9 1 -9 9 0 17 3 19 12 6z m678 -6 c-3 -9 -8 -14 -10 -11 -3 3 -2 9 2
15 9 16 15 13 8 -4z m572 -85 c-3 -5 -12 -10 -18 -10 -7 0 -6 4 3 10 19 12 23
12 15 0z m125 4 c0 -8 -19 -13 -24 -6 -3 5 1 9 9 9 8 0 15 -2 15 -3z m-612
-49 c-3 -3 -9 2 -12 12 -6 14 -5 15 5 6 7 -7 10 -15 7 -18z m-2198 -35 c0 -5
-5 -10 -11 -10 -5 0 -7 5 -4 10 3 6 8 10 11 10 2 0 4 -4 4 -10z m1360 4 c0 -8
-19 -13 -24 -6 -3 5 1 9 9 9 8 0 15 -2 15 -3z m770 -38 c0 -2 -8 -10 -17 -17
-16 -13 -17 -12 -4 4 13 16 21 21 21 13z m520 0 c0 -2 -8 -10 -17 -17 -16 -13
-17 -12 -4 4 13 16 21 21 21 13z m65 -126 c3 -5 1 -10 -4 -10 -6 0 -11 5 -11
10 0 6 2 10 4 10 3 0 8 -4 11 -10z m-195 -280 c0 -5 -2 -10 -4 -10 -3 0 -8 5
-11 10 -3 6 -1 10 4 10 6 0 11 -4 11 -10z m80 0 c0 -5 -2 -10 -4 -10 -3 0 -8
5 -11 10 -3 6 -1 10 4 10 6 0 11 -4 11 -10z m-1565 -40 c3 -5 1 -10 -4 -10 -6
0 -11 5 -11 10 0 6 2 10 4 10 3 0 8 -4 11 -10z m1565 -20 c0 -5 -5 -10 -11
-10 -5 0 -7 5 -4 10 3 6 8 10 11 10 2 0 4 -4 4 -10z m-160 -20 c0 -5 -2 -10
-4 -10 -3 0 -8 5 -11 10 -3 6 -1 10 4 10 6 0 11 -4 11 -10z m-126 -38 c3 -5
-1 -9 -9 -9 -8 0 -12 4 -9 9 3 4 7 8 9 8 2 0 6 -4 9 -8z m341 -10 c-3 -3 -11
0 -18 7 -9 10 -8 11 6 5 10 -3 15 -9 12 -12z m-60 -1 c3 -5 2 -12 -3 -15 -5
-3 -9 1 -9 9 0 17 3 19 12 6z m76 -88 c-12 -20 -14 -14 -5 12 4 9 9 14 11 11
3 -2 0 -13 -6 -23z m-621 -19 c0 -8 -19 -13 -24 -6 -3 5 1 9 9 9 8 0 15 -2 15
-3z m185 -43 c3 -5 2 -12 -3 -15 -5 -3 -9 1 -9 9 0 17 3 19 12 6z m420 -9 c-3
-3 -11 0 -18 7 -9 10 -8 11 6 5 10 -3 15 -9 12 -12z m-1824 -59 c13 -16 12
-17 -3 -4 -10 7 -18 15 -18 17 0 8 8 3 21 -13z m1564 8 c3 -5 2 -12 -3 -15 -5
-3 -9 1 -9 9 0 17 3 19 12 6z m-235 -101 c0 -5 -2 -10 -4 -10 -3 0 -8 5 -11
10 -3 6 -1 10 4 10 6 0 11 -4 11 -10z m340 6 c0 -2 -7 -7 -16 -10 -8 -3 -12
-2 -9 4 6 10 25 14 25 6z m-2980 -30 c0 -2 -8 -10 -17 -17 -16 -13 -17 -12 -4
4 13 16 21 21 21 13z m1391 -23 c13 -16 12 -17 -3 -4 -10 7 -18 15 -18 17 0 8
8 3 21 -13z m-274 -38 c0 -8 -4 -12 -9 -9 -5 3 -6 10 -3 15 9 13 12 11 12 -6z
m83 -99 c0 -2 -8 -10 -17 -17 -16 -13 -17 -12 -4 4 13 16 21 21 21 13z m1085
-56 c3 -6 -1 -7 -9 -4 -18 7 -21 14 -7 14 6 0 13 -4 16 -10z m119 2 c3 -5 -1
-9 -9 -9 -8 0 -12 4 -9 9 3 4 7 8 9 8 2 0 6 -4 9 -8z m256 4 c0 -2 -7 -7 -16
-10 -8 -3 -12 -2 -9 4 6 10 25 14 25 6z m-2425 -54 c-3 -3 -11 0 -18 7 -9 10
-8 11 6 5 10 -3 15 -9 12 -12z m2080 -21 c3 -5 2 -12 -3 -15 -5 -3 -9 1 -9 9
0 17 3 19 12 6z m-1345 -7 c0 -8 -19 -13 -24 -6 -3 5 1 9 9 9 8 0 15 -2 15 -3z
m-699 -91 c13 -16 12 -17 -3 -4 -17 13 -22 21 -14 21 2 0 10 -8 17 -17z m1163
-31 c3 -5 -1 -9 -9 -9 -8 0 -12 4 -9 9 3 4 7 8 9 8 2 0 6 -4 9 -8z m-753 -59
c13 -16 12 -17 -3 -4 -17 13 -22 21 -14 21 2 0 10 -8 17 -17z m-1357 -101 c3
-5 -1 -9 -9 -9 -8 0 -12 4 -9 9 3 4 7 8 9 8 2 0 6 -4 9 -8z m156 2 c0 -8 -19
-13 -24 -6 -3 5 1 9 9 9 8 0 15 -2 15 -3z m484 -122 c3 -5 -1 -9 -9 -9 -8 0
-12 4 -9 9 3 4 7 8 9 8 2 0 6 -4 9 -8z m1116 -6 c-7 -7 -13 -7 -20 0 -6 6 -3
10 10 10 13 0 16 -4 10 -10z m-807 -31 c-3 -9 -8 -14 -10 -11 -3 3 -2 9 2 15
9 16 15 13 8 -4z m-802 -52 c13 -16 12 -17 -3 -4 -17 13 -22 21 -14 21 2 0 10
-8 17 -17z m94 -53 c-3 -5 -12 -10 -18 -10 -7 0 -6 4 3 10 19 12 23 12 15 0z
m710 -148 c-3 -3 -11 0 -18 7 -9 10 -8 11 6 5 10 -3 15 -9 12 -12z m405 -16
c0 -2 -8 -10 -17 -17 -16 -13 -17 -12 -4 4 13 16 21 21 21 13z m-1049 -29
c-10 -9 -11 -8 -5 6 3 10 9 15 12 12 3 -3 0 -11 -7 -18z m166 -22 c0 -8 -4
-12 -9 -9 -5 3 -6 10 -3 15 9 13 12 11 12 -6z m483 -39 c0 -3 -4 -8 -10 -11
-5 -3 -10 -1 -10 4 0 6 5 11 10 11 6 0 10 -2 10 -4z m-470 -80 c0 -2 -8 -10
-17 -17 -16 -13 -17 -12 -4 4 13 16 21 21 21 13z m381 -213 c13 -16 12 -17 -3
-4 -10 7 -18 15 -18 17 0 8 8 3 21 -13z m130 -70 c13 -16 12 -17 -3 -4 -17 13
-22 21 -14 21 2 0 10 -8 17 -17z"/>
</g>
</svg>
