<?xml version="1.0" encoding="UTF-8" standalone="no"?>
<!-- Created with Inkscape (http://www.inkscape.org/) -->

<svg
   width="32"
   height="32"
   viewBox="0 0 8.4666666 8.4666666"
   version="1.1"
   id="svg1"
   inkscape:version="1.3.2 (1:1.3.2+202311252150+091e20ef0f)"
   sodipodi:docname="dssp-helix.svg"
   xmlns:inkscape="http://www.inkscape.org/namespaces/inkscape"
   xmlns:sodipodi="http://sodipodi.sourceforge.net/DTD/sodipodi-0.dtd"
   xmlns="http://www.w3.org/2000/svg"
   xmlns:svg="http://www.w3.org/2000/svg">
  <sodipodi:namedview
     id="namedview1"
     pagecolor="#ffffff"
     bordercolor="#000000"
     borderopacity="0.25"
     inkscape:showpageshadow="2"
     inkscape:pageopacity="0.0"
     inkscape:pagecheckerboard="0"
     inkscape:deskcolor="#d1d1d1"
     inkscape:document-units="px"
     showgrid="true"
     inkscape:zoom="18.031223"
     inkscape:cx="14.142136"
     inkscape:cy="19.743531"
     inkscape:window-width="1850"
     inkscape:window-height="1016"
     inkscape:window-x="70"
     inkscape:window-y="27"
     inkscape:window-maximized="1"
     inkscape:current-layer="layer1">
    <inkscape:grid
       id="grid1"
       units="px"
       originx="0"
       originy="0"
       spacingx="0.26458333"
       spacingy="0.26458333"
       empcolor="#0099e5"
       empopacity="0.30196078"
       color="#0099e5"
       opacity="0.14901961"
       empspacing="4"
       dotted="false"
       gridanglex="30"
       gridanglez="30"
       visible="true" />
  </sodipodi:namedview>
  <defs
     id="defs1" />
  <g
     inkscape:label="Layer 1"
     inkscape:groupmode="layer"
     id="layer1">
    <path
       style="opacity:1;fill:#670000;fill-opacity:0.60000002;stroke:#000000;stroke-width:0.0184041;stroke-dasharray:none;stroke-opacity:1"
       d="M 1.2754258,8.4557039 C 1.6450449,8.4539683 2.0146596,6.4441581 2.3842743,4.23333 2.753889,2.0225118 3.123508,0.01270245 3.4931228,0.01096606 l 1.4784638,-3.35e-6 C 4.6019718,0.0126991 4.2323528,2.0225085 3.8627383,4.2333266 3.4931236,6.4441547 3.1235087,8.453965 2.7538898,8.4557004 Z"
       title="t cos(t)"
       id="path7-5-4"
       sodipodi:nodetypes="ccccccc" />
    <path
       style="fill:#ff0000;fill-opacity:1;stroke:#000000;stroke-width:0.018404;stroke-dasharray:none;stroke-opacity:1"
       d="M 2.7965417,8.4446837 C 2.4269243,8.4429482 2.0573122,6.4331508 1.6877002,4.2223369 1.3180873,2.0115329 0.94847063,0.00173638 0.5788585,0 l -1.47845546,-3.35e-6 c 0.3696127,0.0017364 0.7392296,2.01153285 1.10884166,4.22233685 0.36961293,2.2108139 0.73922506,4.2206113 1.1088417,4.2223468 z"
       title="t cos(t)"
       id="path7-5"
       sodipodi:nodetypes="ccccccc" />
    <path
       style="fill:#670000;fill-opacity:0.60424221;stroke:#000000;stroke-width:0.0184041;stroke-dasharray:none;stroke-opacity:1"
       d="M 5.5907107,8.4557375 C 5.9603299,8.4540019 6.3299446,6.4441917 6.6995592,4.2333636 7.0691739,2.0225454 7.4387929,0.01273607 7.8084077,0.01099968 l 1.4784636,-3.35e-6 C 8.9172563,0.01273272 8.5476378,2.0225421 8.1780233,4.2333602 7.8084086,6.4441883 7.4387937,8.4539986 7.0691747,8.455734 Z"
       title="t cos(t)"
       id="path7-5-4-2"
       sodipodi:nodetypes="ccccccc" />
    <path
       style="fill:#ff0000;fill-opacity:1;stroke:#000000;stroke-width:0.018404;stroke-dasharray:none;stroke-opacity:1"
       d="M 7.0852134,8.4556833 C 6.715596,8.4539478 6.3459839,6.4441504 5.9763719,4.2333365 5.6067589,2.0225325 5.2371423,0.01273601 4.8675302,0.01099963 l -1.4784555,-3.35e-6 C 3.7586874,0.01273268 4.1283043,2.0225291 4.4979164,4.2333331 4.8675293,6.444147 5.2371414,8.4539444 5.606758,8.4556799 Z"
       title="t cos(t)"
       id="path7-5-6"
       sodipodi:nodetypes="ccccccc" />
  </g>
</svg>
