<?xml version="1.0" encoding="UTF-8" standalone="no"?>
<svg
   xmlns:dc="http://purl.org/dc/elements/1.1/"
   xmlns:cc="http://creativecommons.org/ns#"
   xmlns:rdf="http://www.w3.org/1999/02/22-rdf-syntax-ns#"
   xmlns:svg="http://www.w3.org/2000/svg"
   xmlns="http://www.w3.org/2000/svg"
   id="svg4810"
   version="1.1"
   viewBox="0 0 683.25659 464.88995"
   height="464.88995mm"
   width="683.25659mm">
  <defs
     id="defs4804" />
  <metadata
     id="metadata4807">
    <rdf:RDF>
      <cc:Work
         rdf:about="">
        <dc:format>image/svg+xml</dc:format>
        <dc:type
           rdf:resource="http://purl.org/dc/dcmitype/StillImage" />
        <dc:title></dc:title>
      </cc:Work>
    </rdf:RDF>
  </metadata>
  <g
     transform="translate(305.40871,119.89739)"
     id="layer1">
    <path
       id="path1066-2"
       d="m -62.550793,-119.89646 c -9.160675,-0.12661 -2.604732,12.6447 -4.392465,18.52386 1.214134,10.152235 0.91822,20.537289 3.611513,30.499053 0.917167,10.934496 5.128411,21.166741 7.728423,31.744479 4.12243,9.383119 5.65208,19.740191 11.077572,28.533753 2.513402,6.7218841 -5.659091,11.8301925 -8.879863,16.9903255 -9.142076,10.0496755 -18.174353,21.0134835 -30.71234,26.9874995 -5.026917,-4.915974 -9.08376,-10.759096 -13.305158,-16.373003 -3.736729,-7.333863 -12.539739,-7.0103815 -15.185089,0.851003 -8.20149,-6.653331 -15.56571,-14.6200696 -24.9146,-19.7755745 -11.47467,-7.214579 -22.38519,-15.3273625 -34.04511,-22.2048275 -9.11925,-2.511611 -18.10098,-7.248426 -27.85467,-5.791888 -7.4236,2.724994 -13.25164,10.630791 -11.96523,18.724753 0.57558,10.45303626 3.33225,20.703367 6.42917,30.652637 4.4848,8.465625 8.5253,17.192078 12.76822,25.7581 3.04242,8.30393 5.2413,17.005723 10.24175,24.4414 1.15695,6.199706 11.38663,9.318439 10.39006,14.6425 -5.09852,6.753301 -9.15649,14.371347 -11.18294,22.69101 -0.76283,4.10232 -6.83,13.68656 1.25981,12.57769 4.0977,-9.77751 5.89349,-20.75366 12.93594,-29.0988 5.27641,-7.308435 8.35379,7.529441 12.07568,10.9831 4.64309,9.26491 11.77329,16.94573 16.8108,25.98609 4.21792,4.10275 6.98768,-6.42879 11.20018,-0.30389 12.11289,7.75309 24.33807,15.37506 37.516708,21.23706 9.691287,4.84219 19.783266,8.7799 29.786899,12.89104 4.497875,1.79844 14.673715,2.43941 9.7777,9.4139 -15.896089,-1.23063 -31.676335,-3.68015 -47.150285,-7.51441 -11.742132,-2.27977 -23.488372,-5.04393 -35.425242,-5.95138 -4.94195,1.10587 -2.94345,8.30028 -3.6435,12.41619 -16.15714,-1.50903 -32.30738,-3.92898 -48.59654,-3.22089 -10.96684,0.0252 -21.9538,0.57863 -32.83053,1.97939 -14.16131,2.34271 -28.89494,1.37404 -42.7933,5.49752 -3.41339,1.34609 -8.14794,3.20309 -12.0633,5.01347 -7.36182,3.877 -13.83781,9.87506 -18.18266,16.96248 -2.84803,8.85693 6.73469,15.05487 13.62193,18.33822 13.77048,8.25405 30.02707,9.73897 45.64743,11.36245 12.25828,1.81928 24.58847,3.22072 36.87574,4.73047 13.98106,0.70521 27.98135,0.60568 41.92626,-0.58224 8.52099,-0.63159 16.89752,-2.67568 25.42956,-3.28197 12.70211,-2.03363 25.32173,-4.58264 37.682622,-8.17202 14.61005,-3.7972 27.930066,-11.07646 42.105935,-16.1129 5.187877,-2.1275 11.154454,-0.82461 16.867763,-1.58061 13.548669,-0.78274 27.3823149,-0.78301 40.3947468,-5.15748 2.5552662,-4.8588 12.9763622,-9.86991 17.9637602,-4.8157 6.762396,-1.74523 8.887408,-11.33043 17.146829,-12.0447 6.007956,-3.8277 13.762117,-2.84214 20.587723,-4.17276 12.148021,-0.58712 24.25205,-2.23021 36.385861,-2.69522 7.28454,1.82923 14.431,4.26802 21.48746,6.70265 7.37413,1.1382 13.86082,4.60511 20.19709,8.40382 6.50616,4.1814 10.99633,11.03972 17.22742,15.69064 7.74815,6.78314 15.11525,13.98691 22.90951,20.69758 3.55171,-4.59906 7.38457,-6.63181 11.97517,-1.7408 7.18625,5.42961 16.60433,3.70675 24.68933,6.71144 4.50554,1.19892 17.48718,-0.76274 16.8997,3.14014 -5.69337,-0.53177 -14.75229,-1.23994 -11.82784,7.25088 1.58014,10.80472 0.21817,21.68733 -0.3684,32.49474 0.10636,8.95784 0.36022,20.53686 9.33296,25.34281 12.81766,6.62508 25.90895,12.89871 39.50373,17.7445 6.67714,3.401 14.21011,1.12596 20.16952,-2.63802 12.30623,-7.35714 22.51166,-17.73068 32.29123,-28.12413 5.27162,-0.0401 3.62394,11.37344 5.94233,15.82636 2.07266,6.74241 4.83146,13.30706 6.53063,20.12417 1.71837,4.84905 -0.82861,5.25091 -4.32377,6.27401 -1.22631,7.16196 7.26298,10.09632 12.30975,12.76036 8.25615,3.27162 16.95636,7.04038 25.99259,6.61583 6.42666,-4.65648 6.35688,-13.65071 6.31652,-20.83272 0.26501,-9.90588 -2.12468,-19.80438 -6.30628,-28.63385 -3.11309,-7.58273 -7.85541,-14.36275 -14.30111,-19.48524 -6.48568,-3.2273 -12.74892,-5.84225 -13.72391,-13.84167 -6.52088,-11.3612 -12.29173,-23.12047 -21.70017,-32.33091 -6.80598,-7.60297 -15.31667,-14.14917 -21.0743,-22.40321 -6.82995,-10.52592 -15.885,-21.8253 -29.13182,-23.81161 -6.70592,-0.11782 -12.2477,-4.81263 -18.41681,-7.18804 -6.97232,-2.72343 -14.04411,-5.26147 -21.14073,-7.62746 5.82624,-2.33167 13.8529,-0.96244 20.50396,-1.7864 6.47492,1.42526 10.5097,-1.48171 10.02131,-8.19649 10.83883,-2.12047 20.31416,-8.62477 27.07255,-17.22957 10.0338,-11.55387 21.70464,-21.97327 28.82133,-35.75818 5.50813,-8.223336 9.95319,-16.818512 13.81142,-26.06065 4.29221,-13.291719 8.23575,-26.73569 9.83068,-40.663196 0.70326,-8.066021 3.59822,-16.779342 0.17078,-24.530097 -2.00571,-5.2717073 -9.59067,-1.052865 -11.95417,2.112379 -6.73241,7.060224 -13.32579,14.223762 -19.38841,21.858381 -4.14245,4.313529 -7.10979,9.645622 -11.25999,14.254733 -5.17033,6.018146 -8.90765,13.092512 -14.46218,18.8613 -7.0921,9.537981 -15.85953,17.757231 -24.47549,25.922 -5.15529,6.11995 -11.43403,12.21822 -15.35096,19.55636 -5.01691,6.71799 -7.19676,16.44936 -16.01767,19.39674 -9.47205,2.19552 -18.89872,-1.98263 -28.39879,-2.0872 -8.76026,-0.18762 -17.54896,-3.52025 -26.29088,-1.42824 -2.06122,6.59413 -10.92962,4.00991 -16.24961,6.48474 -14.9406,2.9253 -29.94085,5.94268 -44.56967,10.063 -3.2754,-3.13051 -5.57502,-6.58583 0.3625,-8.153 13.84262,-8.82258 26.43836,-19.6057 39.93009,-29.0296 11.44772,-9.32869 21.96145,-19.745177 32.66002,-29.906768 4.0989,-7.345094 12.58692,-7.047035 18.68056,-11.353686 2.84223,-4.143995 9.37753,-12.481821 11.51167,-2.854846 3.3435,6.466137 11.79847,8.407383 14.55851,15.163556 -0.52831,8.131612 5.06961,16.836974 13.70044,17.285974 9.05924,1.63136 17.84439,-6.776924 16.8651,-15.858655 0.0271,-7.058843 -7.15598,-11.134528 -4.0964,-18.534514 -2.16979,-7.564 1.50639,-16.970869 -6.06543,-22.546148 -5.38393,-4.723952 -13.50529,-4.515502 -19.28229,-0.973876 -5.75049,0.149121 -5.91804,-10.494098 -12.45116,-11.719153 -7.43215,-1.88517 1.53067,-11.400565 -0.2041,-17.113084 0.37707,-7.455786 0.77918,-15.3268007 4.24659,-22.0563386 7.75242,1.1005406 15.31583,5.1505724 23.40001,5.7460079 8.70949,1.2326375 14.99497,-6.4452942 13.10439,-14.7338693 1.25773,-7.970283 -3.38964,-14.756315 -10.04072,-18.620603 -5.84637,-5.104747 -13.53386,-1.948321 -18.92199,2.224165 -4.31255,4.090905 -8.20788,9.535324 -10.4261,14.690876 -5.25682,0.712908 -12.28121,-5.793896 -17.9529,-8.032341 -7.52021,-4.716323 -16.13042,-7.336607 -23.63473,-12.023601 -6.66407,-2.376361 -15.10815,-6.533377 -21.07418,-0.31391 -0.46833,6.756128 -4.93447,11.075146 -11.50207,13.43251 -7.47123,4.389466 -14.52689,9.454917 -22.3898,13.160717 -6.14822,1.526815 -9.1304,10.738406 -2.87791,12.68528748 C 118.4221,6.8146645 110.84776,-5.28026 104.46202,-0.91878215 93.578601,0.73482286 88.777059,16.168822 96.526058,23.913535 101.96128,29.236772 89.23097,31.610505 90.273399,38.254688 91.42907,46.712239 86.380178,52.893759 81.895277,59.706 77.323082,65.510293 73.216857,71.61681 69.277465,77.844297 63.802672,81.858399 61.228173,94.380594 54.795308,93.88453 46.718063,87.566646 41.109886,78.955403 33.616236,72.060941 27.100248,67.855638 27.23653,60.989966 33.241054,56.263683 39.758363,48.936249 44.104867,40.011411 50.465933,32.570987 54.676373,25.003946 60.48762,18.510909 64.303531,10.709638 72.086469,-0.0113394 77.368814,-12.299789 84.821036,-23.22667 c 2.060592,-6.963561 8.214455,-11.888672 9.52406,-19.15807 5.808294,-8.364798 -13.506653,-4.766265 -7.23199,-13.352814 -0.204379,-4.73586 -6.948238,-8.276504 -11.345897,-10.126909 -7.965081,-1.392745 -14.33992,4.981297 -21.971002,5.978261 -6.761192,1.8074 -14.553165,6.662605 -21.31137,4.347999 -5.896755,-4.777631 -13.878851,-5.55088 -21.14497,-4.445199 -6.4256563,-1.320339 -13.3231706,-7.706093 -19.124499,-1.489475 -6.184527,0.662678 -7.872195,8.939617 -13.715637,12.203276 -4.41944,3.825984 -9.60546,7.384027 -13.69789,11.090236 -7.359,5.462894 10.797639,10.815101 1.484333,16.985036 -1.900005,4.536996 -6.340986,10.585273 -8.418926,2.653663 -3.204768,-8.737477 -5.832505,-17.683699 -9.062473,-26.393005 -2.354212,-9.488111 -5.604506,-18.764704 -6.53922,-28.558996 -2.646215,-11.266252 -2.613601,-22.914141 -3.193659,-34.412043 -0.562459,-3.80227 0.960961,-9.10019 -1.622689,-11.99175 z m 134.94422,60.145668 c 4.482731,-1.423972 11.451291,8.976613 3.127172,4.981695 -4.287958,-1.968557 -9.033848,-5.31998 -10.330962,1.454509 -4.059788,5.814457 -6.31481,12.572353 -10.324669,18.372476 C 49.652652,-24.372823 43.478384,-14.261014 37.126317,-4.3644895 33.094529,2.6778617 27.689139,8.8022208 23.632843,15.779824 17.996809,22.789519 13.451282,30.612631 7.5528982,37.415635 4.7486293,33.529515 -5.4648859,26.036548 -0.0703632,20.94761 5.4768892,17.649156 -3.1833893,14.811656 -6.1222032,13.28351 -14.341942,9.923724 -22.643067,6.6531888 -30.488244,2.5044105 c -5.203051,-4.68453 -6.622518,-11.075034 -0.730619,-15.8854005 1.95739,-4.265072 5.926917,-9.854855 8.825561,-3.33975 3.891578,9.04815 10.792832,-1.554879 15.6993061,-3.882546 7.42590636,-5.508038 13.6150783,-12.59137 21.5186749,-17.518219 4.742991,-4.929446 11.046986,-8.516309 17.505568,-8.851288 6.578634,-3.366724 14.806388,-3.925058 21.85179,-6.79239 6.315685,-1.324649 12.118507,-4.490926 18.21139,-5.985609 z m 94.305863,23.467298 c 9.44525,2.269985 17.76907,7.775682 26.69592,11.504013 7.56802,4.452435 15.47166,8.293688 23.26413,12.339788 2.46595,5.2921712 -3.18372,12.13018593 -2.47438,18.3181728 -0.95843,8.0845002 -0.21213,17.1702422 -5.43855,23.9795072 -6.07362,6.830529 -10.93848,-8.533257 -14.98088,-0.93424 -5.12605,9.697665 -11.46596,-5.018194 -19.43432,-1.988582 -8.63558,-0.937494 -11.69864,9.971847 -17.67562,11.329056 -2.43308,-6.926557 -7.07985,-12.64048 -7.68371,-20.285236 2.00746,-5.210321 5.77626,-10.3457422 11.72158,-6.930575 2.98267,-8.2022148 -0.46228,-16.9938938 -0.15783,-25.456819 -1.82853,-7.390324 -0.62327,-13.239548 3.68165,-19.277502 0.01,-1.40844 0.93336,-2.768445 2.48201,-2.597583 z m 75.37627,4.4587 c 7.97654,-0.0722 12.97769,8.26332 12.3171,15.537504 2.08459,10.0197323 -9.3893,7.5237502 -15.14332,5.558011 -5.20931,-1.676521 -16.47871,-2.99542 -9.24566,-10.193097 2.94125,-4.391426 6.46101,-10.028779 12.07188,-10.902418 z m -439.00574,8.0801 c 9.16151,0.400549 17.87899,3.884199 26.20453,7.384716 7.6716,5.491097 15.91767,10.118959 23.47509,15.76415099 11.11405,7.13123761 22.17022,14.68596901 30.88497,24.70813701 -3.21508,5.476995 -9.72963,11.719052 -1.66694,16.440345 9.1196,6.812879 -6.49132,8.23316 -10.76507,11.900592 -9.63128,5.645371 -19.25672,11.229521 -28.11486,18.081338 -4.55399,4.102035 -10.46516,10.681596 -14.8389,2.652225 -7.76198,-8.158504 -10.53072,-19.389829 -14.07601,-29.697859 -5.10251,-10.090159 -10.44514,-20.176991 -14.49439,-30.684683 -2.07135,-9.4946562 -5.70276,-19.0659804 -4.70805,-28.912878 1.1232,-3.388494 3.97188,-8.052594 8.09963,-7.636084 z m 156.852937,23.62080448 c 1.948369,2.62593922 4.787393,5.42815592 3.968413,9.00050032 -0.01984,12.4931902 -1.023766,25.2216412 1.797024,37.5014492 2.701652,5.351558 6.826403,1.712368 9.164041,1.407651 3.58264,5.472855 9.527023,10.427471 9.966581,17.139694 -2.162708,9.818782 -5.645467,19.24462 -8.287229,28.931005 -3.288467,6.33342 -9.623716,-6.874247 -14.288284,-8.289255 -7.968338,-7.562416 -15.261541,-15.809791 -23.159576,-23.462345 -4.665278,-6.626678 -10.842232,-12.121976 -15.632489,-18.699509 -8.976497,-6.814449 7.785637,-9.349117 10.702401,-15.077331 8.305877,-7.210298 15.365331,-15.665257 22.505768,-23.9818595 0.911937,-1.569955 1.979472,-3.2379656 3.26335,-4.47000002 z M 336.97573,19.83301 c 0.9201,9.914804 -2.2724,19.822888 -3.23457,29.706289 -2.84863,13.47333 -6.42379,27.033192 -12.84753,39.274886 -2.78049,6.247325 -6.74845,11.611775 -10.01501,17.589425 -5.86226,10.37146 -14.49571,18.70845 -22.64828,27.26021 -6.32046,7.58745 -13.31624,16.46373 -23.62745,18.24648 -3.07815,-0.75843 -0.79654,-9.45553 -7.13019,-6.17015 -13.03972,1.0472 -26.10072,2.61946 -39.18533,2.62514 6.43733,-5.14092 16.09507,-4.81648 21.65294,-11.05618 7.24806,-8.12934 10.65848,-18.97497 18.07078,-27.03014 9.9508,-10.929385 21.18661,-20.723138 30.42022,-32.289923 4.62263,-5.912609 9.50551,-11.616273 13.65142,-17.879096 5.34436,-6.025795 9.7118,-12.919576 15.12295,-18.926753 5.37866,-7.21887 11.7911,-13.600465 17.97642,-20.102075 -0.0383,0.420596 1.80078,-1.988362 1.79363,-1.248113 z m -447.02595,30.8358 c 5.67747,3.981575 8.65027,10.802466 13.947869,15.316522 12.32403,13.330316 24.803838,26.620979 39.136952,37.835458 6.771299,6.00447 14.789251,10.73546 21.293216,16.9543 -2.077949,5.30617 -1.943215,14.65923 -6.83428,17.18157 -14.803246,-4.12945 -28.171335,-12.09555 -41.419781,-19.66023 -6.796365,-3.55497 -13.46591,-7.8859 -19.766216,-12.04852 -3.55221,-4.20459 -16.89177,-6.622418 -11.76958,-13.567741 0.38302,-5.655366 -11.87323,-3.574935 -16.4256,-5.327259 -8.68334,-1.34335 -17.12973,-3.988537 -25.92395,-4.813064 -6.7351,-1.265532 5.28478,-6.818128 7.29252,-9.326636 12.69427,-8.729225 25.96454,-17.209513 40.46885,-22.5444 z m 215.6964,29.9419 c 3.0456,5.77335 8.23422,11.183304 15.28515,11.043779 4.8302,1.951167 13.52842,-6.306635 14.71674,0.711801 -3.73804,3.843259 -6.52004,8.15853 -10.44369,12.44951 -5.61104,5.43734 -10.95262,11.01329 -16.78278,16.19223 -5.62469,3.62267 -12.010936,15.83256 -17.893363,6.48258 -3.700844,-4.73165 -15.449957,-8.66752 -7.903008,-15.18563 4.521565,-8.08696 11.499853,-14.437348 15.755186,-22.684584 2.455245,-2.986716 4.764745,-6.061174 7.265765,-9.009686 z m -96.7093332,9.1539 c 5.9759362,7.767731 14.0784472,13.41439 20.7635252,20.53701 3.578227,4.06626 14.319628,8.33248 6.359865,13.67699 -3.029292,4.34255 -6.396263,13.29806 -11.67474,6.3174 -6.731883,-2.78846 -12.567001,-7.57305 -19.1238302,-10.83753 -7.6200479,-5.40645 -16.3267068,-10.08103 -22.2834598,-17.25837 7.4126291,-3.653795 14.820882,-7.347397 22.4254998,-10.5095 1.00066,-0.928322 2.3195384,-1.360829 3.53314,-1.926 z m -39.0012498,34.2822 c 8.982702,4.3974 17.38036,10.0048 26.3335429,14.52309 7.2228523,4.28615 15.3128001,6.7552 22.7409771,10.53222 -0.708964,5.49297 -4.948234,7.02837 -9.7052424,4.57907 -10.5680472,-2.86779 -21.4864616,-4.24214 -31.8312476,-7.94621 -6.596476,-1.82027 -18.213446,-3.49667 -11.391417,-12.39476 1.412714,-2.8188 1.242459,-7.53706 3.853387,-9.29341 z m 94.79473,14.8166 c 4.315718,3.40654 17.08402,8.11578 6.92309,12.27581 -4.069006,2.01952 -8.734436,-3.02756 -12.60388,-4.4705 1.459129,-2.81069 3.149031,-5.84773 5.68079,-7.80531 z m -107.94328,27.96891 c 7.303993,1.47969 14.511168,3.59891 21.887649,4.772 4.966729,2.00115 -7.470145,1.04528 -9.378556,0.89327 -3.334517,-0.91335 -19.017074,0.97175 -12.509093,-5.66527 z m 261.280703,1.20759 c -2.68307,5.27233 -13.00165,1.34365 -18.51475,1.95983 -10.04892,-1.92884 6.66061,-1.35149 9.60729,-1.70573 2.96915,-0.0847 5.93831,-0.1694 8.90746,-0.2541 z m -401.12488,4.67209 c 14.74645,-0.15405 29.4262,1.66027 44.05172,3.26899 4.02042,3.46868 -3.1329,15.01777 6.42374,13.0366 16.811,1.58752 33.58644,3.78087 50.515178,3.13616 12.378505,-0.35401 24.788945,-0.53837 37.134366,-1.35531 4.356532,4.18684 -8.349095,5.54628 -11.568778,7.59928 -11.76965,4.27957 -22.768481,10.60349 -35.073448,13.33047 -10.659748,3.63978 -21.653978,5.82739 -32.728688,7.74283 -11.59385,1.7447 -23.21846,3.67806 -34.925,4.56509 -11.53754,1.02607 -23.10162,0.96131 -34.64672,0.26597 -7.96687,-0.40936 -15.77413,-2.28374 -23.75644,-2.72707 -8.24905,-1.35776 -16.49766,-2.74234 -24.85223,-3.34089 -11.53249,-1.31121 -23.04517,-3.93139 -33.15825,-9.85893 -4.42954,-2.62741 -14.76976,-6.73655 -8.9346,-13.18298 8.97661,-10.92938 23.33338,-15.55035 36.86868,-17.51628 14.00037,-1.00162 27.94098,-2.71156 41.91289,-4.06593 7.57649,-0.33485 15.15523,-0.96939 22.73758,-0.898 z m 449.82888,15.9376 c 6.33714,2.15505 13.46797,3.46262 17.90426,9.05476 7.81179,7.20515 12.11487,17.31116 20.19546,24.30055 9.84408,9.84279 20.27057,19.52412 26.55267,32.1652 1.47917,4.0271 8.50355,10.65728 5.96951,13.48554 -10.57287,-2.53783 -20.32036,-7.75907 -30.88675,-10.15643 -8.76052,-2.05069 -15.24579,5.58728 -21.4112,10.4809 -6.59424,5.10979 -12.75194,11.46971 -20.945,13.82969 -2.15313,-12.88904 2.43934,-26.00115 -0.34881,-38.87729 0.0361,-9.11916 -9.78529,-9.83872 -16.76384,-10.55952 -5.08525,-3.98621 -9.16762,-12.27463 -17.8113,-9.9214 -8.51124,0.32086 -16.47302,-3.37652 -24.94083,-3.71579 -5.85975,-1.61881 -15.47946,-5.79979 -8.15581,-12.20146 -3.29769,-4.86936 -11.88337,-6.86035 -17.00864,-10.91018 -2.14466,-1.62033 -12.8467,-5.97982 -9.29058,-6.53486 14.44863,3.0189 29.19371,4.31824 43.72539,6.90447 1.73341,2.75048 1.03767,6.16231 5.74651,4.75012 9.81437,-0.20339 18.95664,-4.24967 28.45612,-6.27918 6.35882,-1.87155 12.56482,-4.25182 19.01284,-5.81512 z"
       style="fill:#ffffff;fill-opacity:1;stroke:none;stroke-width:0.26458332px;stroke-linecap:butt;stroke-linejoin:miter;stroke-opacity:1" />
    <path
       id="rect826-5-9"
       d="m -241.36262,265.711 c -1.32491,0 -1.90554,0.029 -2.26446,0.093 -0.63905,0.11372 -0.93313,0.6173 -1.53065,2.62361 -0.40673,1.3657 -0.82728,3.3355 -0.93483,4.37751 v 0 l -0.19585,1.89499 6.11693,-0.097 6.11643,-0.097 0.79323,-3.175 c 0.43627,-1.7463 0.80207,-3.69062 0.81287,-4.3212 l 0.0196,-1.1467 -2.20503,-0.046 c -3.33441,-0.07 -5.40336,-0.10491 -6.72827,-0.107 z m 362.07971,0.0161 c -2.85377,-0.01 -5.70743,0.066 -5.87198,0.23101 -0.36404,0.36399 -1.88542,6.58619 -1.89603,7.7551 v 0 l -0.009,0.9699 h 5.77745 c 6.4762,0 6.44011,0.013 6.97888,-2.5641 0.85347,-4.08292 1.11866,-5.90312 0.8935,-6.12841 -0.16549,-0.1655 -3.01926,-0.25598 -5.87303,-0.264 z m -274.58169,1.3353 c -4.06916,-0.0259 -6.2521,0.33581 -9.63145,1.47021 -5.88795,1.97649 -9.05831,4.2018 -13.78934,9.67849 -2.76343,3.19899 -4.19182,6.3946 -5.5578,12.4339 -1.55338,6.86771 -0.68431,13.7844 2.27221,18.0815 2.90281,4.2191 7.01034,6.4226 13.40539,7.1919 3.09068,0.37179 8.35245,0.13891 11.0355,-0.48839 4.02586,-0.9411 9.35284,-3.0453 9.57822,-3.7837 0.97028,-3.1785 2.31744,-8.8124 2.31718,-9.68992 -5.3e-4,-1.55318 -0.52544,-1.7363 -2.04949,-0.71419 -5.15768,3.45919 -9.30556,5.15149 -13.09584,5.34242 -7.03448,0.35419 -10.40559,-2.52431 -10.80968,-9.23002 -0.53391,-8.86021 3.41393,-16.72849 9.90327,-19.73731 1.90943,-0.88529 2.49964,-0.97748 6.02961,-0.98748 3.73727,-0.01 4.01854,0.047 6.25285,1.16938 1.28667,0.64651 3.22708,2.03552 4.3124,3.08671 2.73706,2.65091 4.08784,2.4616 4.56044,-0.63929 0.12625,-0.82851 0.62824,-3.14362 1.11518,-5.1449 1.0106,-4.15351 0.98572,-4.23831 -1.59112,-5.38472 -3.8946,-1.73268 -7.44889,-2.48478 -12.38891,-2.62099 -0.66726,-0.0191 -1.28731,-0.03 -1.86862,-0.034 z m -129.75022,0.91793 c -10.37035,0 -11.22247,0.046 -11.39104,0.61701 -0.1002,0.33959 -0.52237,2.12601 -0.93844,3.96931 -0.41607,1.84319 -1.202,4.93839 -1.74615,6.87858 -0.54415,1.9404 -1.17747,4.63942 -1.40766,5.9976 -0.50468,2.97762 -1.63625,7.97992 -2.51354,11.1125 -0.35321,1.26111 -0.71251,2.8484 -0.7984,3.5274 -0.0859,0.67911 -0.63362,3.21932 -1.2175,5.6447 -1.66257,6.90592 -1.94126,8.36531 -1.71101,8.9653 0.19015,0.49522 1.57689,0.55862 12.13208,0.55862 12.53895,0 15.7309,-0.27371 20.03133,-1.70741 3.20834,-1.06961 4.7456,-1.9367 6.93601,-3.9134 4.01141,-3.62 5.54129,-9.1549 3.8561,-13.9496 -0.75911,-2.1598 -1.65159,-3.1885 -3.82509,-4.41 -0.82459,-0.46349 -1.49913,-0.96919 -1.49913,-1.1235 0,-0.15441 0.59531,-0.59049 1.32291,-0.9694 1.77233,-0.9229 4.77407,-3.79558 5.56194,-5.32271 0.90837,-1.76069 0.95609,-7.469 0.076,-9.07949 -1.7325,-3.17029 -4.29399,-4.91189 -8.99118,-6.11338 -2.36344,-0.60452 -3.94963,-0.68213 -13.87719,-0.68213 z m 373.086787,1.41132 c -4.94829,0 -5.46622,0.059 -5.78776,0.65939 -0.34327,0.6414 -0.63021,1.66751 -1.59113,5.69061 -0.6849,2.8676 -0.83203,3.08469 -2.25049,3.32848 -3.6068,0.61971 -3.50163,0.50091 -4.29535,4.8782 -0.53523,2.95172 -0.2516,3.4344 2.01744,3.4344 h 1.57975 l -0.17052,1.49971 c -0.0938,0.8246 -0.41863,2.45161 -0.72141,3.6158 -0.72771,2.79781 -1.63505,6.7945 -1.84227,8.11371 -0.17359,1.10498 -0.44233,2.3308 -0.77306,3.52798 -0.36648,1.32652 -0.3924,5.86502 -0.0393,6.87811 0.57049,1.6365 2.54749,3.2857 4.95784,4.13671 v 0 c 1.7349,0.61248 3.01884,0.78369 5.85801,0.79369 4.44301,0.0111 8.3244,-0.58459 9.05375,-1.39059 0.55856,-0.6172 1.1262,-2.82861 1.48672,-5.79141 l 0.20981,-1.72279 -1.19578,0.24339 c -0.65778,0.1337 -2.3422,0.3305 -3.74293,0.4376 -2.4978,0.19129 -2.56807,0.17391 -3.66128,-0.9193 -1.02907,-1.02899 -1.09722,-1.24169 -0.88783,-2.76931 0.23648,-1.72519 1.17242,-5.85978 1.53379,-6.77529 0.11485,-0.29099 0.62899,-2.5931 1.14255,-5.11551 l 0.93379,-4.58618 5.18007,-0.098 5.180013,-0.098 0.65421,-1.31361 c 0.35983,-0.72249 0.85849,-2.30341 1.10797,-3.5135 0.66582,-3.228 0.60317,-3.26801 -5.152133,-3.26801 -4.00981,0 -4.71908,-0.081 -4.71908,-0.5421 0,-0.29808 0.40754,-2.35929 0.90588,-4.5806 0.49829,-2.22128 0.8064,-4.20029 0.68469,-4.39719 -0.13417,-0.21709 -2.36016,-0.35761 -5.65597,-0.35761 z m -369.634287,7.47215 c 3.57375,-0.013 5.65321,0.68191 6.65128,2.20501 1.16266,1.77451 -0.26789,5.00769 -2.79156,6.31021 -2.53852,1.31019 -10.35124,1.42689 -9.93428,0.14829 0.0784,-0.2405 0.22898,-1.0723 0.33435,-1.8484 0.10536,-0.77621 0.47546,-2.60189 0.82268,-4.0571 l 0.63149,-2.64591 3.5512,-0.1002 c 0.25166,-0.01 0.49659,-0.0111 0.73484,-0.0119 z m 73.31439,1.4774 c -4.63935,-0.071 -9.37418,0.96812 -12.78268,2.91611 -1.92699,1.1013 -5.34656,4.0677 -6.36188,5.5186 -2.86675,4.09649 -3.39002,5.27399 -4.16048,9.36839 -1.30908,6.95672 -0.58198,11.32951 2.51045,15.1035 1.54593,1.88662 5.03839,3.87702 7.97832,4.547 3.29027,0.7497 10.35958,0.47501 13.27774,-0.51578 3.77288,-1.2809 5.7634,-2.55021 8.89042,-5.66991 3.11894,-3.11161 4.73762,-5.7349 5.78052,-9.36689 0.47334,-1.6484 0.60709,-2.38651 1.10433,-6.09631 0.30086,-2.2447 -0.50594,-6.6551 -1.62988,-8.91051 -1.73812,-3.4879 -4.80586,-5.45499 -10.0521,-6.44559 -1.47257,-0.27811 -3.00831,-0.4249 -4.55476,-0.44861 z m 93.80616,0.042 c -2.28525,0.0249 -4.60576,0.2658 -6.32209,0.70228 -4.47259,1.13782 -9.21233,3.99151 -12.10882,7.29052 -3.52759,4.0177 -5.62228,11.5743 -4.97851,17.96018 0.19344,1.91892 0.51231,3.12502 1.01182,3.82662 0.40122,0.5634 0.72968,1.17678 0.72968,1.36318 0,0.6273 1.47814,2.2257 3.31091,3.57971 1.71461,1.26661 4.95255,2.65559 6.91947,2.96831 2.12213,0.33739 8.13026,0.18269 10.23038,-0.26311 6.33594,-1.34501 12.21141,-5.7841 14.911237,-11.26651 2.12858,-4.3225 2.33084,-4.90958 2.7528,-7.9897 0.41093,-2.99979 0.46186,-4.49638 0.19844,-5.82078 -0.0772,-0.38801 -0.25838,-1.4156 -0.40256,-2.28312 -0.14418,-0.86738 -0.63953,-2.1373 -1.10071,-2.82199 -0.46119,-0.6848 -1.23589,-1.83891 -1.72186,-2.56469 -1.151947,-1.72061 -5.108987,-3.74832 -8.463557,-4.33721 -1.43312,-0.25159 -3.1892,-0.363 -4.96663,-0.34369 z m 272.21025,0.053 c -2.66565,-0.037 -5.51085,0.6037 -8.22481,1.91619 -3.24784,1.57059 -3.93322,1.70521 -3.61736,0.71001 0.14679,-0.46241 -0.0375,-0.8523 -0.58393,-1.235 -1.03386,-0.72422 -10.05486,-0.8214 -10.93782,-0.11792 -0.75637,0.60261 -1.5802,3.0894 -2.07431,6.26171 -0.22664,1.4552 -0.53631,2.88401 -0.68834,3.175 -0.15203,0.29101 -0.3596,1.00541 -0.46146,1.5875 -0.10186,0.58211 -0.5153,2.5663 -0.91879,4.40949 -0.40352,1.8433 -0.98248,4.54242 -1.28675,5.9976 -0.3043,1.45521 -0.95194,4.23312 -1.43867,6.17321 -1.13054,4.50699 -1.60317,7.18441 -1.34308,7.60531 v 0 c 0.11406,0.1845 2.62146,0.33229 5.63996,0.33229 4.95798,0 5.46603,-0.059 5.78983,-0.66349 0.32663,-0.6104 1.49354,-5.31702 2.15336,-8.68532 0.53335,-2.7227 0.73491,-3.54108 1.24746,-5.06119 0.28432,-0.84331 0.60373,-2.1131 0.70953,-2.82199 0.10578,-0.70911 0.3302,-1.84481 0.49866,-2.52392 0.16846,-0.67908 0.39865,-1.85449 0.51213,-2.61178 0.36087,-2.40861 0.90604,-3.083 3.19204,-3.95372 1.45619,-0.55459 2.8869,-0.80698 4.58578,-0.81698 3.12764,-0.013 3.9569,0.54089 4.2726,2.85348 0.23072,1.68992 0.18135,1.95731 -2.55799,13.87782 -2.15802,9.39069 -2.17522,9.48769 -1.7916,9.9745 0.26625,0.33779 1.72336,0.426 5.857,0.35298 l 5.50302,-0.097 0.5829,-2.29288 c 0.74994,-2.94912 3.85652,-15.8324 4.04059,-16.75712 1.98501,-9.97209 1.45444,-13.74529 -2.23605,-15.9081 -1.85962,-1.08979 -4.07183,-1.6488 -6.4239,-1.681 z m -219.679603,0.019 c -2.82489,0.029 -5.97814,1.09259 -10.39627,3.30369 -0.74774,0.3742 -1.0082,0.09 -1.0082,-1.10069 0,-0.55161 -0.23808,-1.05281 -0.55811,-1.1756 -0.80355,-0.3084 -10.12215,-0.254 -10.61899,0.062 -0.57173,0.36341 -1.32638,2.75921 -2.19108,6.95561 -0.3998,1.94029 -1.10489,4.9567 -1.56683,6.7029 -0.46194,1.7463 -1.03261,4.1275 -1.26866,5.29169 -0.23605,1.16411 -0.56158,2.67211 -0.72295,3.35121 -0.16138,0.679 -0.63607,2.82218 -1.05523,4.7625 -0.41918,1.94019 -0.99785,4.52229 -1.28571,5.7377 -0.28785,1.21539 -0.42672,2.3662 -0.30851,2.55739 v 0 c 0.33468,0.54171 10.94052,0.45482 11.36365,-0.093 0.18737,-0.24249 0.78218,-2.3463 1.32188,-4.67461 0.5397,-2.32828 1.36312,-5.7413 1.82935,-7.5846 0.46623,-1.8433 0.92659,-3.82738 1.02319,-4.40949 0.0966,-0.58208 0.48409,-2.24898 0.86145,-3.70419 0.37734,-1.45521 0.76526,-3.0507 0.86196,-3.5455 0.26708,-1.3658 2.49833,-2.3395 6.14846,-2.6825 2.57003,-0.24159 3.46093,0.046 4.12533,1.33059 0.58356,1.1285 0.49906,3.26231 -0.23616,5.95571 -0.30062,1.10138 -1.49248,6.49669 -1.9482,8.8191 -0.0952,0.48508 -0.56573,2.51399 -1.04542,4.50828 -0.47969,1.9943 -0.90668,4.21662 -0.94878,4.93872 l -0.0765,1.3131 5.54799,0.097 5.54746,0.097 0.47232,-1.15549 c 0.25955,-0.6355 0.83507,-2.7427 1.279,-4.68291 0.44391,-1.9403 1.11879,-4.71861 1.49964,-6.17379 0.38084,-1.45521 0.99132,-4.0745 1.35703,-5.82081 1.16213,-5.54921 1.81944,-7.2848 3.00033,-7.92559 4.46442,-2.4225 8.59272,-2.06211 9.12916,0.7973 0.25823,1.3766 -0.22918,5.24269 -0.98754,7.8337 -1.19472,4.08199 -3.76055,16.52299 -3.468,16.81549 0.17198,0.17229 2.82966,0.2695 5.90609,0.2155 l 5.59345,-0.098 0.49506,-2.29291 c 1.20534,-5.58268 2.99882,-12.56088 3.33211,-12.96458 0.19989,-0.24252 0.28694,-0.4413 0.19222,-0.4413 -0.0947,0 -0.0503,-0.59531 0.0992,-1.32292 1.91143,-9.3032 2.05841,-11.03939 1.19682,-14.14489 -0.97777,-3.52419 -4.17309,-5.39279 -9.27021,-5.4198 -3.47787,-0.019 -8.41365,1.7684 -11.36574,4.11501 -0.86053,0.684 -1.81744,1.24741 -2.12648,1.24741 -0.31064,0 -0.92265,-0.69752 -1.36839,-1.56422 -0.64145,-1.24719 -1.19815,-1.75339 -2.72387,-2.47579 -1.92554,-0.9117 -3.70456,-1.37601 -5.63738,-1.35601 z m 70.1921098,0.041 c -0.32242,0 -0.67464,0 -1.06455,0.0101 -2.94606,0.039 -3.9301,0.32571 -8.2124,2.39581 -1.10705,0.5352 -1.7199,0.65971 -2.0247,0.41132 -0.24046,-0.19593 -0.35819,-0.4844 -0.26149,-0.64082 0.0966,-0.1564 -0.0587,-0.51859 -0.3457,-0.80561 -0.40386,-0.40388 -1.60901,-0.53358 -5.33303,-0.57359 -5.6181798,-0.06 -6.2347198,0.1691 -6.7985398,2.5254 -0.19894,0.8314 -0.53036,2.14622 -0.73639,2.9223 -0.20601,0.7761 -0.46562,1.9667 -0.57722,2.6458 -0.1116,0.67911 -0.43405,2.04671 -0.71675,3.03861 -0.57899,2.03139 -0.65794,2.42009 -0.99272,4.89889 -0.13105,0.9702 -0.4591,2.4787 -0.72914,3.3518 -0.27006,0.8732 -0.68064,2.53992 -0.9121,3.70411 -0.47572,2.39289 -1.62147,7.22731 -2.09031,8.81909 -0.17142,0.58211 -0.50395,2.01091 -0.73896,3.175 -0.235,1.1642 -0.87354,3.8903 -1.41904,6.05811 -0.54551,2.16779 -1.03766,4.78708 -1.09347,5.82078 l -0.10128,1.88003 5.11543,0.19119 c 2.81342,0.10509 5.16528,0.2246 5.22655,0.26461 0.0613,0.04 0.40701,-0.085 0.76843,-0.27861 0.55171,-0.2953 1.06307,-1.78271 1.57769,-4.58729 0.3548,-1.93361 1.00888,-5.05273 1.26608,-6.0379 0.18317,-0.70162 0.33332,-1.59512 0.33332,-1.98541 0,-1.4696 0.7670298,-1.57602 4.2198898,-0.58549 2.75482,0.7902 3.71068,0.90439 6.30452,0.75398 3.83874,-0.22249 6.10217,-0.93081 8.85992,-2.77239 3.0280502,-2.02221 4.9526302,-3.9598 6.7882302,-6.83529 2.9255,-4.58272 4.44434,-9.85301 4.44934,-15.44043 0.005,-5.74899 -1.86669,-9.44459 -5.6529,-11.15949 -2.05492,-0.9308 -2.85187,-1.14778 -5.1087102,-1.16009 z m 187.1348232,0.20212 c -2.71722,-0.029 -5.44759,0.1924 -6.7939,0.68058 -2.7627,1.0019 -4.72508,2.2923 -7.02542,4.61931 -2.49087,2.5196 -2.54762,2.6031 -4.57079,6.7355 -2.00877,4.1031 -2.42152,6.00631 -2.4112,11.12131 0.007,3.7782 0.10126,4.39999 0.94155,6.2389 1.77382,3.88178 4.7208,5.93 9.26711,6.43991 3.10354,0.34798 6.33725,-0.03 8.90127,-1.04072 2.71513,-1.07029 2.96833,-0.9962 2.69751,0.78859 -0.29229,1.9258 -2.91262,4.60021 -5.07926,5.18362 -2.46251,0.66299 -8.00145,0.49328 -11.7166,-0.3591 -1.84327,-0.42291 -3.9003,-0.7884 -4.57131,-0.8124 l -1.22007,-0.043 -0.93017,4.13977 c -1.10268,4.90731 -1.07662,4.96411 2.48822,5.3857 1.26119,0.14912 3.16616,0.3715 4.23333,0.49411 v 0 c 4.3991,0.5052 14.50607,-0.033 15.73496,-0.8382 0.45151,-0.29591 1.02597,-0.538 1.2769,-0.538 1.41142,0 7.40894,-4.1147 8.58242,-5.88799 2.09736,-3.16931 3.58654,-7.2391 5.07413,-13.86789 0.41368,-1.84322 0.89879,-3.98632 1.07797,-4.7625 0.17915,-0.77611 0.58219,-2.52222 0.89556,-3.88041 0.31334,-1.35821 0.85651,-3.50131 1.20716,-4.7625 0.62619,-2.25211 1.93635,-7.8599 1.87325,-8.01762 -0.0177,-0.044 0.19068,-0.91739 0.46302,-1.9404 0.75438,-2.8339 0.66532,-3.75629 -0.4015,-4.162 -1.44548,-0.54949 -9.3294,-0.4295 -10.45777,0.15912 -0.85444,0.4458 -1.15326,0.41968 -2.82204,-0.24701 -1.29307,-0.5166 -3.99712,-0.79709 -6.71433,-0.8263 z m -438.25904,0.57049 c -5.62716,0 -5.85623,0.085 -6.50193,2.39731 -0.86452,3.09629 -2.53879,10.3564 -3.01325,13.06528 -0.28313,1.61661 -0.59607,3.07081 -0.69557,3.23192 -0.0995,0.161 -0.4268,1.61649 -0.72709,3.2344 -0.30029,1.618 -0.91246,4.21179 -1.36012,5.764 -1.05247,3.64929 -1.74962,7.44079 -1.45573,7.9163 0.34989,0.56589 10.94019,0.50398 11.37605,-0.067 0.18522,-0.24249 0.54414,-1.3934 0.79737,-2.55749 0.5058,-2.32539 2.72554,-11.57639 3.04736,-12.7 0.11114,-0.38809 0.33923,-1.49939 0.50643,-2.46959 0.1672,-0.97009 0.54515,-2.5577 0.84026,-3.5279 0.29511,-0.9701 0.76486,-2.95442 1.04386,-4.4096 0.27899,-1.45521 0.87258,-4.0177 1.3193,-5.6942 1.13189,-4.24781 1.21132,-4.1837 -5.17694,-4.1837 z m 304.511657,0 c -5.01655,0 -5.96091,0.2399 -6.4756,1.64589 -0.29117,0.7955 -1.3711,5.22193 -1.70685,6.99702 -0.48628,2.5704 -1.00619,4.89839 -1.39838,6.2621 -0.26506,0.9216 -0.415,1.6754 -0.33332,1.6754 0.0818,0 -0.003,0.401 -0.18965,0.8909 -0.18624,0.48998 -0.50509,1.95861 -0.70848,3.2634 -0.6487,4.1616 -0.81283,4.43928 -3.26387,5.53289 -3.74579,1.67132 -7.79598,1.57289 -8.75141,-0.21231 -0.47162,-0.88119 -0.47916,-4.12048 -0.0124,-5.32939 0.20595,-0.53359 0.30742,-0.97049 0.22532,-0.97049 -0.0821,0 0.003,-0.43651 0.18862,-0.97002 0.18587,-0.53358 0.79584,-3.19278 1.35546,-5.90918 0.55968,-2.71639 1.38205,-6.5777 1.82729,-8.58091 0.6944,-3.12391 0.73727,-3.6875 0.30181,-3.96301 -0.27924,-0.17669 -2.82469,-0.32708 -5.6565,-0.32708 -5.99387,-0.01 -6.1768,0.083 -6.49314,3.17389 -0.1075,1.05021 -0.4454,2.86811 -0.75086,4.03961 -0.30549,1.17149 -0.62545,2.52658 -0.71059,3.0117 -0.26149,1.48979 -1.20756,5.38249 -1.71511,7.0559 -0.26484,0.8731 -0.65828,2.61919 -0.87437,3.88038 -0.21603,1.26122 -0.46064,2.61073 -0.54311,2.99871 -1.44867,6.81019 1.02037,11.2744 6.92153,12.51561 0.85431,0.17939 2.81916,0.24839 4.36615,0.1524 2.39448,-0.1484 3.30605,-0.40841 6.13241,-1.7472 1.82602,-0.865 3.52687,-1.5725 3.77965,-1.5725 0.26067,0 0.50726,0.49599 0.57,1.1462 l 0.11057,1.14668 5.20901,0.098 c 3.00751,0.056 5.48806,-0.052 5.86938,-0.2558 0.36322,-0.19428 0.74091,-0.8736 0.83923,-1.50899 0.24614,-1.5911 0.49543,-2.71669 1.50532,-6.7995 0.48004,-1.9403 0.9475,-3.92499 1.0387,-4.41011 0.24662,-1.31198 2.03984,-8.72119 2.43346,-10.05419 0.0573,-0.19399 0.22182,-0.82859 0.36533,-1.4107 0.14359,-0.58201 0.35134,-1.29641 0.46146,-1.5875 0.2767,-0.73129 0.33729,-1.00979 0.61444,-2.81491 0.13346,-0.86899 0.30562,-1.68179 0.38243,-1.80609 0.0768,-0.12431 0.24138,-1.08001 0.36537,-2.12389 0.12398,-1.04392 0.2904,-2.0093 0.36996,-2.14501 0.37494,-0.63921 -1.61866,-0.98808 -5.64925,-0.98808 z m 54.415273,0 c -3.88591,0 -4.95319,0.1075 -5.38727,0.5416 -0.67497,0.67501 -1.80498,4.33819 -2.55333,8.27799 -0.83865,4.41532 -1.72252,8.5865 -2.57866,12.17081 -1.05404,4.41301 -2.7423,11.75592 -3.03133,13.1848 -0.1684,0.83251 -0.0965,1.28349 0.23823,1.4991 0.26326,0.16949 2.85311,0.26871 5.75572,0.22072 l 5.2777,-0.088 0.41547,-1.23511 c 0.22874,-0.6791 0.58368,-2.02821 0.7886,-2.99831 0.62671,-2.96659 2.23414,-9.45671 2.54402,-10.2717 0.16089,-0.4231 0.39518,-1.45871 0.52091,-2.30169 0.22828,-1.53051 2.39855,-11.0176 3.56928,-15.6032 0.85151,-3.3351 0.74954,-3.39719 -5.55934,-3.39719 z m -231.6763,7.3737 c 2.02699,0.041 3.86923,0.88569 4.71289,2.51719 1.32596,2.56411 0.91159,7.4182 -1.08469,12.70932 -0.91198,2.4171 -2.5908,4.38729 -4.56664,5.3599 -3.16504,1.55771 -7.33162,0.6622 -8.4491,-1.816 -1.01796,-2.2575 -0.83716,-7.4818 0.36122,-10.4453 1.22027,-3.01781 2.37892,-5.1953 3.20497,-6.02141 1.58239,-1.58229 3.79436,-2.34468 5.82135,-2.3037 z m -94.54979,0.0209 c 0.93044,-0.0119 1.88316,0.13661 2.82826,0.4527 2.66325,0.89091 3.67788,5.4659 2.39934,10.819 -1.21235,5.0759 -3.03857,7.8826 -6.16036,9.46859 -1.22218,0.6209 -3.46993,0.76732 -5.08186,0.33131 -2.31647,-0.62661 -3.50883,-2.28229 -3.60443,-5.00591 -0.21562,-6.14389 1.17771,-10.78079 4.12585,-13.72889 1.50767,-1.5077 3.44624,-2.31071 5.4932,-2.3368 z m 407.93582,0.30081 c 1.26479,0.01 2.85414,0.196 3.53158,0.4196 1.71339,0.56549 1.74689,0.16859 -0.89969,10.67988 -0.37989,1.50881 -0.69091,3.06461 -0.69091,3.4572 0,2.0229 -1.33625,3.1396 -4.86793,4.068 -2.28484,0.60042 -2.99649,0.58621 -4.93562,-0.1 -1.74442,-0.61719 -2.35974,-1.4071 -2.86649,-3.6789 -0.33838,-1.51701 -0.25371,-2.61231 0.50384,-6.49001 0.92398,-4.72909 5.39639,-8.38409 10.22522,-8.3561 z M 2.1393068,287.39721 c 2.31192,-0.0249 4.44269,0.7466 5.13302,2.0815 0.59277,1.1462 0.77525,7.0276 0.23669,7.62339 -0.16668,0.1842 -0.47659,1.23682 -0.68884,2.33931 -0.65008,3.37709 -3.39148,6.48639 -6.73346,7.6368 v 0 c -1.50733,0.51869 -5.9359,0.49599 -7.0435,-0.036 -0.74504,-0.35798 -0.81404,-0.5725 -0.64389,-2.00448 0.1048,-0.88202 0.45339,-2.3767 0.77465,-3.32182 0.60899,-1.7916 0.69162,-2.13159 1.02473,-4.22759 0.32819,-2.06499 0.92297,-4.54552 1.18959,-4.9589 0.13632,-0.2114 0.26895,-0.92379 0.29403,-1.5834 0.0536,-1.4006 0.83646,-2.1101 3.31042,-2.99979 1.00747999709,-0.36232 2.09568,-0.53801 3.14656,-0.5493 z m -288.1782668,7.48395 c 0.81622,0 1.86164,0.018 3.19825,0.055 5.28243,0.14919 6.41779,0.489 7.71116,2.30528 0.62146,0.87281 0.7082,1.3448 0.5147,2.80342 -0.43715,3.29539 -1.78052,4.64378 -5.71438,5.73458 -2.53989,0.70432 -8.41576,0.8726 -9.88467,0.28321 -0.93773,-0.37629 -0.90776,-0.74451 0.50281,-6.2488 0.46057,-1.7971 0.83716,-3.5724 0.83716,-3.94501 0,-0.73319 0.38631,-0.97608 2.83497,-0.98798 z"
       style="fill:#ffffff;fill-opacity:1;stroke:none;stroke-width:1.29461515;stroke-linecap:butt;stroke-linejoin:round;stroke-miterlimit:4;stroke-dasharray:none;stroke-opacity:1" />
  </g>
</svg>
