<?xml version="1.0" standalone="no"?>
<!DOCTYPE svg PUBLIC "-//W3C//DTD SVG 20010904//EN"
 "http://www.w3.org/TR/2001/REC-SVG-20010904/DTD/svg10.dtd">
<svg version="1.0" xmlns="http://www.w3.org/2000/svg"
 width="700.000000pt" height="700.000000pt" viewBox="0 0 700.000000 700.000000"
 preserveAspectRatio="xMidYMid meet">
<metadata>
Created by potrace 1.14, written by Peter Selinger 2001-2017
</metadata>
<g transform="translate(0.000000,700.000000) scale(0.100000,-0.100000)"
fill="#000000" stroke="none">
<path d="M3360 6110 c-74 -27 -141 -50 -147 -50 -7 0 -13 -5 -13 -12 0 -6 -3
-9 -6 -5 -5 4 -180 -53 -244 -80 -8 -3 -17 -7 -20 -8 -20 -5 -117 -39 -125
-44 -5 -3 -14 -6 -20 -7 -5 -1 -48 -16 -95 -34 -47 -17 -93 -33 -104 -35 -10
-2 -24 -9 -32 -16 -8 -6 -14 -8 -14 -5 0 4 -9 2 -21 -4 -11 -6 -28 -13 -37
-15 -9 -2 -69 -23 -132 -45 -293 -105 -366 -131 -375 -133 -5 -2 -14 -5 -20
-8 -5 -4 -23 -9 -38 -13 -17 -4 -25 -11 -21 -18 4 -7 3 -8 -4 -4 -12 7 -142
-32 -142 -43 0 -3 -10 -7 -23 -8 -12 0 -35 -7 -52 -14 -16 -7 -32 -13 -35 -14
-3 -1 -12 -4 -20 -8 -8 -3 -64 -22 -125 -43 -60 -21 -116 -42 -123 -48 -8 -5
-21 -11 -30 -11 -27 -3 -132 -38 -132 -45 0 -3 -8 -6 -17 -7 -10 -1 -31 -7
-48 -14 -16 -7 -34 -13 -40 -15 -5 -1 -37 -12 -70 -24 -33 -12 -79 -28 -102
-36 -44 -16 -43 -13 -29 -94 3 -14 5 -42 5 -63 1 -28 4 -36 14 -31 9 6 9 5 0
-8 -7 -8 -10 -17 -7 -21 3 -3 7 -23 9 -44 6 -74 16 -158 20 -178 2 -11 4 -37
4 -58 1 -28 4 -36 13 -31 10 6 10 5 1 -8 -7 -8 -11 -17 -9 -19 2 -2 7 -33 11
-69 4 -36 11 -70 16 -76 7 -8 6 -14 -1 -19 -6 -3 -8 -10 -6 -14 4 -6 10 -52
32 -256 3 -27 11 -56 17 -64 10 -12 9 -13 -2 -6 -11 6 -13 4 -7 -10 4 -11 9
-48 12 -84 3 -37 8 -77 10 -91 3 -14 7 -52 10 -85 3 -33 10 -63 16 -66 7 -4 6
-9 -1 -13 -6 -4 -9 -12 -5 -17 3 -5 7 -38 10 -72 2 -34 6 -71 8 -82 3 -11 8
-54 12 -95 3 -41 8 -78 11 -82 2 -4 6 -38 8 -75 5 -61 10 -104 15 -110 1 -2 2
-23 3 -48 0 -25 4 -45 7 -45 4 0 5 -12 2 -26 -4 -21 -2 -25 9 -19 10 6 11 5 3
-4 -7 -8 -8 -30 -3 -64 7 -49 18 -156 19 -185 0 -8 5 -10 13 -6 8 6 8 3 -1 -9
-8 -9 -12 -20 -9 -24 5 -8 8 -37 23 -173 4 -36 12 -68 18 -72 8 -5 7 -8 -2 -8
-7 0 -11 -4 -8 -9 5 -8 18 -108 19 -148 0 -7 5 -13 10 -13 5 0 4 -6 -2 -13 -6
-8 -8 -16 -5 -20 6 -5 12 -56 16 -124 0 -18 4 -33 7 -33 3 0 7 -26 7 -58 1
-31 4 -69 7 -84 3 -15 9 -62 12 -105 5 -53 13 -82 24 -90 13 -11 13 -13 1 -11
-8 2 -14 -3 -12 -10 1 -8 5 -37 7 -64 3 -28 6 -52 7 -53 10 -9 321 -180 368
-203 19 -9 37 -19 40 -22 3 -3 16 -11 30 -19 79 -45 114 -60 123 -54 5 3 7 1
4 -4 -4 -6 15 -21 41 -34 26 -13 50 -28 53 -33 4 -5 14 -6 24 -3 9 4 14 3 10
-3 -3 -6 2 -13 12 -17 10 -4 20 -9 23 -12 3 -3 20 -14 38 -24 97 -51 203 -108
247 -134 28 -16 86 -49 130 -73 44 -24 103 -56 130 -72 28 -16 75 -41 105 -56
30 -15 61 -33 68 -39 7 -7 20 -13 28 -13 8 0 14 -4 14 -9 0 -5 9 -12 20 -16
10 -3 86 -43 167 -89 81 -45 173 -96 203 -113 30 -16 78 -43 105 -58 28 -15
89 -50 137 -77 l87 -49 48 27 c26 14 82 45 123 67 41 22 92 51 112 64 21 13
39 23 41 23 4 0 64 33 187 102 25 14 158 87 295 163 308 170 267 148 645 357
173 96 415 230 537 297 l222 123 6 46 c10 79 13 103 25 212 6 58 13 118 15
135 2 16 7 55 10 85 3 30 7 71 10 90 11 80 15 118 20 170 2 30 7 71 9 90 5 35
11 81 21 175 3 28 10 86 15 130 5 44 12 103 15 130 3 28 7 61 10 75 2 14 7 54
10 90 4 36 8 76 10 90 5 35 19 160 30 260 7 65 14 122 20 170 3 19 7 60 10 90
3 30 8 69 10 85 2 17 7 50 9 75 3 25 10 83 15 130 6 47 13 112 16 145 4 33 8
71 10 85 2 14 7 52 10 85 4 33 8 71 10 85 2 14 9 72 15 130 6 58 13 121 15
140 11 84 33 280 41 355 2 28 7 60 9 72 6 25 22 18 -335 144 -124 44 -254 91
-290 104 -97 35 -310 111 -645 230 -165 58 -325 115 -355 126 -50 19 -362 130
-605 216 -55 19 -140 50 -190 68 -79 29 -187 66 -189 65 -1 -1 -62 -23 -136
-50z m591 -232 c186 -87 246 -321 125 -489 -160 -220 -512 -152 -578 112 -42
170 46 332 212 393 65 23 171 16 241 -16z m-612 -439 c17 -17 32 -39 32 -50 1
-10 2 -25 3 -31 1 -7 -3 -24 -10 -38 -51 -105 -206 -72 -206 44 0 96 113 143
181 75z m1351 15 c103 -31 189 -104 238 -204 24 -49 27 -66 27 -160 0 -96 -2
-110 -30 -165 -16 -33 -51 -81 -78 -107 -248 -243 -662 -57 -645 290 11 247
251 417 488 346z m-3205 -62 c-3 -3 -11 0 -18 7 -9 10 -8 11 6 5 10 -3 15 -9
12 -12z m-81 -30 c3 -5 -1 -9 -9 -9 -8 0 -12 4 -9 9 3 4 7 8 9 8 2 0 6 -4 9
-8z m1043 -7 c0 -8 -4 -12 -9 -9 -5 3 -6 10 -3 15 9 13 12 11 12 -6z m-960
-310 c0 -8 -4 -12 -9 -9 -5 3 -6 10 -3 15 9 13 12 11 12 -6z m2213 -19 c188
-14 366 -52 459 -101 44 -22 100 -73 117 -106 30 -58 11 -141 -42 -191 -29
-26 -143 -88 -163 -88 -8 0 -11 -107 -10 -337 l0 -338 80 -39 c326 -160 595
-473 714 -830 56 -169 68 -242 71 -441 2 -160 0 -193 -22 -300 -85 -402 -319
-739 -664 -952 -122 -75 -339 -163 -440 -179 -19 -3 -53 -10 -75 -16 -56 -13
-346 -19 -425 -7 -107 15 -116 17 -210 42 -72 19 -170 57 -240 92 -53 26 -149
81 -175 100 -97 71 -140 108 -225 194 -52 53 -99 94 -105 93 -5 -2 -7 0 -3 3
9 10 -10 47 -21 41 -4 -3 -8 0 -8 7 0 7 -22 46 -50 87 -27 41 -60 99 -73 128
-13 28 -27 52 -32 52 -4 0 -7 3 -7 8 1 4 0 9 -1 12 -1 3 -3 12 -6 20 -2 8 -17
53 -33 100 -17 47 -30 93 -30 103 -1 10 -4 16 -8 14 -5 -3 -9 11 -10 31 -1 21
-8 85 -16 144 -12 94 -14 255 -3 313 2 11 -2 26 -8 34 -8 11 -8 13 0 8 8 -4
14 9 19 39 17 117 52 235 105 354 44 100 133 252 173 295 35 38 56 72 49 79
-4 4 -2 6 3 5 6 -2 48 34 94 79 47 45 89 82 94 82 4 0 5 5 1 12 -4 6 -3 8 3 5
5 -4 19 1 29 11 35 31 228 152 249 156 6 1 20 8 33 14 l22 13 0 334 c0 235 -3
335 -11 335 -28 0 -138 62 -171 96 -32 34 -56 89 -53 119 10 96 90 166 240
211 33 10 62 18 65 19 3 1 19 4 35 8 17 4 48 10 70 13 22 3 51 7 65 9 14 3 79
7 145 11 66 4 121 7 122 8 4 3 207 -2 283 -8z m-2330 -342 c0 -8 -19 -13 -24
-6 -3 5 1 9 9 9 8 0 15 -2 15 -3z m40 -40 c0 -8 -19 -13 -24 -6 -3 5 1 9 9 9
8 0 15 -2 15 -3z m84 -2 c3 -5 -1 -9 -9 -9 -8 0 -12 4 -9 9 3 4 7 8 9 8 2 0 6
-4 9 -8z m-89 -122 c3 -5 1 -10 -4 -10 -6 0 -11 5 -11 10 0 6 2 10 4 10 3 0 8
-4 11 -10z m-351 -198 c3 -5 -1 -9 -9 -9 -8 0 -12 4 -9 9 3 4 7 8 9 8 2 0 6
-4 9 -8z m646 -38 c0 -8 -19 -13 -24 -6 -3 5 1 9 9 9 8 0 15 -2 15 -3z m-330
-80 c0 -8 -19 -13 -24 -6 -3 5 1 9 9 9 8 0 15 -2 15 -3z m40 -40 c0 -8 -19
-13 -24 -6 -3 5 1 9 9 9 8 0 15 -2 15 -3z m1040 -80 c0 -8 -19 -13 -24 -6 -3
5 1 9 9 9 8 0 15 -2 15 -3z m-1045 -163 c3 -5 2 -12 -3 -15 -5 -3 -9 1 -9 9 0
17 3 19 12 6z m89 -159 c3 -5 -1 -9 -9 -9 -8 0 -12 4 -9 9 3 4 7 8 9 8 2 0 6
-4 9 -8z m-203 -159 c13 -16 12 -17 -3 -4 -17 13 -22 21 -14 21 2 0 10 -8 17
-17z m30 -290 c13 -16 12 -17 -3 -4 -10 7 -18 15 -18 17 0 8 8 3 21 -13z m129
-33 c0 -5 -4 -10 -10 -10 -5 0 -10 5 -10 10 0 6 5 10 10 10 6 0 10 -4 10 -10z
m-124 -40 c0 -12 -4 -16 -9 -11 -5 5 -6 14 -3 20 10 15 12 14 12 -9z m79 -200
c3 -5 1 -10 -4 -10 -6 0 -11 5 -11 10 0 6 2 10 4 10 3 0 8 -4 11 -10z m-111
-118 c3 -5 -1 -9 -9 -9 -8 0 -12 4 -9 9 3 4 7 8 9 8 2 0 6 -4 9 -8z m467 -35
c-10 -9 -11 -8 -5 6 3 10 9 15 12 12 3 -3 0 -11 -7 -18z m-461 -123 c0 -8 -19
-13 -24 -6 -3 5 1 9 9 9 8 0 15 -2 15 -3z m110 -118 c0 -3 -4 -8 -10 -11 -5
-3 -10 -1 -10 4 0 6 5 11 10 11 6 0 10 -2 10 -4z m130 -40 c0 -2 -8 -10 -17
-17 -16 -13 -17 -12 -4 4 13 16 21 21 21 13z m-133 -121 c0 -8 -4 -12 -9 -9
-5 3 -6 10 -3 15 9 13 12 11 12 -6z m-42 -253 c-3 -3 -11 0 -18 7 -9 10 -8 11
6 5 10 -3 15 -9 12 -12z m335 -188 c0 -8 -19 -13 -24 -6 -3 5 1 9 9 9 8 0 15
-2 15 -3z m-130 -379 c14 -19 14 -19 -2 -6 -10 7 -18 18 -18 24 0 6 1 8 3 6 1
-2 9 -13 17 -24z"/>
<path d="M3741 5661 c-31 -29 -34 -39 -33 -95 1 -36 46 -83 86 -90 65 -12 130
44 128 110 -4 94 -112 139 -181 75z"/>
<path d="M4530 5243 c-87 -30 -134 -118 -107 -198 26 -77 79 -117 156 -118 60
0 105 24 138 74 49 75 30 175 -45 223 -50 32 -88 37 -142 19z"/>
<path d="M3377 4815 c-1 -1 -42 -5 -92 -9 -133 -9 -315 -42 -315 -56 0 -6 95
-30 140 -36 8 0 35 -4 60 -8 141 -20 423 -26 540 -12 30 4 75 9 100 12 53 6
182 33 188 38 14 15 -140 48 -283 62 -59 5 -333 13 -338 9z"/>
<path d="M3129 4130 c-1 -198 -2 -363 -3 -367 -6 -28 -39 -58 -86 -79 -98 -44
-201 -99 -225 -119 -12 -11 -28 -21 -36 -23 -8 -2 -16 -7 -19 -10 -3 -4 -27
-25 -55 -47 -56 -45 -110 -99 -158 -158 -18 -21 -40 -49 -50 -60 -11 -12 -31
-42 -45 -67 -14 -25 -34 -56 -44 -69 -10 -13 -18 -32 -18 -41 0 -10 -6 -23
-13 -29 -8 -6 -20 -30 -27 -53 -8 -24 -17 -47 -20 -53 -14 -21 -31 -96 -24
-107 4 -6 3 -8 -3 -5 -5 3 -14 -16 -19 -44 -11 -53 -9 -56 39 -36 18 8 35 15
39 16 4 1 27 9 50 17 52 19 163 53 198 61 14 2 32 6 40 8 8 2 21 4 28 4 7 1
11 4 9 9 -3 4 11 7 31 7 21 0 57 4 82 8 92 16 158 21 285 21 258 1 417 -28
795 -146 107 -33 200 -61 205 -62 6 -2 30 -8 55 -15 55 -16 53 -16 175 -42
103 -22 374 -33 391 -16 5 4 0 53 -9 108 -57 332 -241 618 -526 818 -36 25
-191 106 -257 134 -71 30 -73 40 -73 372 0 160 0 320 -1 358 l0 67 -37 -4
c-192 -23 -473 -24 -630 -2 l-43 6 -1 -360z m408 12 c73 -40 71 -150 -4 -191
-74 -39 -167 29 -156 114 10 72 94 112 160 77z m128 -562 c31 -30 44 -68 34
-106 -22 -80 -120 -107 -178 -49 -17 17 -32 41 -34 55 -7 36 19 93 51 113 35
23 96 16 127 -13z m-457 -204 c60 -31 74 -117 27 -166 -82 -86 -212 -12 -182
104 17 64 93 94 155 62z"/>
<path d="M2930 2689 c-36 -4 -83 -10 -105 -14 -22 -3 -51 -8 -65 -10 -139 -21
-521 -159 -506 -183 2 -4 7 -35 10 -68 6 -67 22 -154 35 -194 5 -14 14 -44 21
-67 7 -23 16 -40 21 -38 4 3 5 -3 3 -13 -9 -31 93 -216 181 -331 5 -7 52 -56
103 -108 61 -61 99 -93 108 -89 8 3 12 1 9 -4 -16 -26 275 -185 375 -204 3 -1
11 -5 18 -9 6 -5 12 -6 12 -2 0 3 8 1 18 -4 9 -5 35 -12 57 -15 22 -4 54 -9
70 -12 17 -3 44 -7 60 -10 39 -5 222 -5 255 0 14 2 48 7 75 11 242 32 512 177
697 373 170 181 274 397 322 673 l6 36 -117 0 c-211 -1 -377 28 -663 118 -47
15 -98 31 -115 35 -16 5 -82 24 -146 43 -103 31 -251 65 -364 82 -60 10 -301
12 -375 4z"/>
</g>
</svg>
