<?xml version="1.0" encoding="UTF-8" standalone="no"?>
<!-- Generator: Adobe Illustrator 19.1.0, SVG Export Plug-In . SVG Version: 6.00 Build 0)  -->

<svg
   version="1.1"
   id="Layer_1"
   x="0px"
   y="0px"
   viewBox="0 0 1345.0901 200"
   xml:space="preserve"
   sodipodi:docname="ngx-biocomp-up.svg"
   inkscape:version="1.3.2 (1:1.3.2+202311252150+091e20ef0f)"
   width="1345.0901"
   height="200"
   xmlns:inkscape="http://www.inkscape.org/namespaces/inkscape"
   xmlns:sodipodi="http://sodipodi.sourceforge.net/DTD/sodipodi-0.dtd"
   xmlns:xlink="http://www.w3.org/1999/xlink"
   xmlns="http://www.w3.org/2000/svg"
   xmlns:svg="http://www.w3.org/2000/svg"><defs
   id="defs21"><rect
     x="250"
     y="0"
     width="649.43127"
     height="250"
     id="rect2" /><rect
     x="250"
     y="31"
     width="90.036575"
     height="199"
     id="rect1" /><linearGradient
     inkscape:collect="always"
     id="linearGradient3954"><stop
       style="stop-color:#ffffff;stop-opacity:1;"
       offset="0"
       id="stop3950" /><stop
       style="stop-color:#ffffff;stop-opacity:0;"
       offset="1"
       id="stop3952" /></linearGradient><linearGradient
     inkscape:collect="always"
     xlink:href="#linearGradient3954"
     id="linearGradient3956"
     x1="31.900391"
     y1="130"
     x2="218.09961"
     y2="130"
     gradientUnits="userSpaceOnUse" /></defs><sodipodi:namedview
   id="namedview19"
   pagecolor="#505050"
   bordercolor="#eeeeee"
   borderopacity="1"
   inkscape:pageshadow="0"
   inkscape:pageopacity="0"
   inkscape:pagecheckerboard="0"
   showgrid="true"
   inkscape:snap-page="true"
   inkscape:snap-bbox="true"
   inkscape:bbox-paths="true"
   inkscape:bbox-nodes="true"
   inkscape:snap-grids="false"
   inkscape:zoom="1.564"
   inkscape:cx="205.56266"
   inkscape:cy="184.78261"
   inkscape:window-width="1850"
   inkscape:window-height="1016"
   inkscape:window-x="70"
   inkscape:window-y="27"
   inkscape:window-maximized="1"
   inkscape:current-layer="g16"
   inkscape:showpageshadow="2"
   inkscape:deskcolor="#d1d1d1"><inkscape:grid
     type="xygrid"
     id="grid23"
     snapvisiblegridlinesonly="false"
     enabled="true"
     originx="-31.900393"
     originy="-30"
     spacingy="1"
     spacingx="1"
     units="px"
     visible="true" /></sodipodi:namedview>
<style
   type="text/css"
   id="style2">
	.st0{fill:#FFFFFF;}
	.st1{opacity:0.9;}
</style>
<g
   id="g16"
   inkscape:label="shield"
   style="fill:#e6e6e6;fill-opacity:1"
   transform="translate(-31.900391,-30)"><path
   id="path623"
   style="fill:#008aff;fill-opacity:1"
   class="st0"
   inkscape:label="left"
   d="M 125,30 31.900391,63.199219 46.099609,186.30078 125,230 c 0,-87.15337 0,-116.38744 0,-200 z"
   sodipodi:nodetypes="ccccc" /><path
   id="path623-3"
   style="opacity:0.9;fill:#008aff;fill-opacity:0.898039"
   class="st0"
   inkscape:label="right"
   d="M 125,30.000002 218.09961,63.199221 203.90039,186.30078 125,230 c 0,-87.15337 0,-116.38744 0,-199.999998 z"
   sodipodi:nodetypes="ccccc" /><path
   d="m 192.60541,90.378601 c -3.12019,-3.120164 -7.93306,-3.603597 -11.66869,-1.186721 -1.18674,0.76916 -2.50547,1.384632 -3.88938,1.889921 L 158.91799,72.952452 c 0.50526,-1.362163 1.12076,-2.680875 1.88993,-3.867492 2.43944,-3.757334 1.93412,-8.548518 -1.2527,-11.73471 -2.13122,-1.977695 -4.79041,-2.900428 -7.51543,-2.637309 -2.85705,0.307372 -5.3842,1.889931 -6.92165,4.329434 -6.26279,9.866405 -7.27322,22.172064 -6.83394,31.512617 -11.51496,-0.439313 -26.3923,1.362162 -36.3681,11.338788 -9.954858,9.95488 -11.756374,24.85314 -11.317078,36.41225 -9.427109,-0.41758 -21.799761,0.59297 -31.556771,6.79056 -0.592976,0.37333 -1.120751,0.8134 -1.626039,1.29618 -1.757999,1.75798 -2.74671,4.10893 -2.74671,6.5927 0,2.483 0.967082,4.83456 2.725014,6.5927 1.802204,1.80221 4.153258,2.72502 6.526686,2.72502 1.757988,0 3.537785,-0.50528 5.142003,-1.53833 0.549516,-0.35159 1.142503,-0.68145 1.736247,-0.96709 l 19.381609,19.38161 c -0.30737,0.59299 -0.615485,1.18675 -0.967082,1.73625 -2.439453,3.75733 -1.934131,8.54852 1.18673,11.69037 1.823958,1.82396 4.197398,2.72503 6.592708,2.72503 2.39529,0 4.790393,-0.92285 6.614373,-2.72503 0.48354,-0.48352 0.92285,-1.01055 1.29618,-1.62603 6.19679,-9.75701 7.18553,-22.12793 6.79057,-31.55678 11.55853,0.43932 26.43644,-1.36216 36.41224,-11.3171 9.95488,-9.95486 11.77884,-24.83202 11.36124,-36.36808 9.31771,0.43932 21.60015,-0.54953 31.48958,-6.81226 2.43945,-1.53832 3.99954,-4.06554 4.32944,-6.944291 0.26164,-2.768573 -0.66121,-5.427587 -2.68298,-7.603135 z m -20.30473,1.97847 c -5.58131,1.054782 -11.42725,0.813392 -15.16291,0.461783 -0.3516,-3.713958 -0.61546,-9.580832 0.46178,-15.162902 z M 148.72187,61.306964 c 0.83514,-1.340416 2.2197,-2.197246 3.77978,-2.373425 1.88994,-0.197903 3.29635,0.724924 4.10892,1.472362 1.69201,1.692008 1.93414,4.306789 0.61549,6.372957 -4.85645,7.581452 -4.98829,18.370782 -4.39527,25.534426 -0.7909,-0.131983 -1.36216,-0.24139 -1.64777,-0.285629 -0.65897,-0.153668 -3.93351,-0.813392 -8.61453,-1.20847 -0.46104,-8.768259 0.35159,-20.416031 6.15321,-29.512852 z M 75.216101,158.10561 c 5.998911,-1.64778 12.855307,-1.47237 17.667596,-1.01057 0.4618,4.79042 0.65896,11.66869 -0.988808,17.66762 z m 26.127459,30.52232 c -0.21965,0.32987 -0.43933,0.61549 -0.72495,0.90111 -1.977693,1.9777 -5.186123,1.9777 -7.163823,0.0218 -1.692005,-1.69202 -1.934128,-4.30679 -0.61547,-6.35052 4.83455,-7.53711 4.96659,-18.3489 4.3728,-25.53443 1.03304,0.15369 1.62604,0.28563 1.62604,0.28563 0.68145,0.15369 3.955203,0.81339 8.614533,1.18673 0.41758,8.81164 -0.41756,20.50241 -6.10907,29.48984 z m 43.75109,-43.57646 c -10.04257,10.04257 -26.54582,10.52622 -35.51214,9.95487 -5.33987,-0.30737 -9.14154,-1.09902 -9.888873,-1.25269 -0.066,-0.0218 -1.84568,-0.37334 -4.63668,-0.7032 -6.89996,-0.81339 -19.732803,-1.36217 -28.280755,4.10893 -2.043515,1.34041 -4.658378,1.07652 -6.350509,-0.61549 -0.944585,-0.94458 -1.47236,-2.21969 -1.47236,-3.58191 0,-1.36223 0.527775,-2.63731 1.494101,-3.60362 0.263887,-0.26388 0.549527,-0.50527 0.879372,-0.70319 9.646848,-6.10907 22.39276,-6.63606 31.380191,-5.99891 4.54899,0.32985 7.911353,0.94458 9.141543,1.18673 0.76915,0.17617 2.87874,0.54951 5.38419,0.8134 8.10847,0.85686 22.8764,1.12075 30.74305,-6.74623 7.22985,-7.22987 7.51543,-20.59068 7.01013,-28.10611 0.85685,0.13198 1.64777,0.26388 2.30739,0.39583 1.165,0.24139 4.02123,0.7909 7.91136,1.16498 0.43856,10.74499 -1.07728,24.65546 -10.10938,33.68703 z m -4.43882,-35.70983 c 0.15368,2.08785 0.28563,5.07599 0.11023,8.35065 l -8.46004,-8.46003 c 3.27389,-0.19792 6.26202,-0.066 8.34989,0.10944 z m -13.79993,0.46179 13.31648,13.31648 c -0.61547,3.62625 -1.75798,7.18553 -3.71395,9.95488 l -19.55817,-19.55817 c 2.79104,-1.95582 6.32882,-3.09848 9.95489,-3.71395 z m -13.03147,6.68042 19.66755,19.66755 c -2.68087,2.04352 -6.13075,3.27446 -9.75701,3.9335 l -13.82236,-13.82237 c 0.68144,-3.60361 1.86818,-7.07613 3.91182,-9.77868 z m -4.41639,24.10656 c -0.19789,-2.39511 -0.32986,-5.55961 -0.13197,-8.94366 l 9.07552,9.07551 c -3.20865,0.19716 -6.32881,0.0652 -8.94367,-0.13198 z m 79.26328,-39.33511 c -9.77872,6.21846 -22.41389,6.7021 -31.31303,6.02136 -4.57067,-0.32986 -7.95474,-0.98881 -9.20756,-1.2527 -1.42812,-0.30737 -3.31804,-0.59297 -5.31818,-0.7909 -6.52669,-0.7032 -22.56742,-1.45062 -30.78719,6.76812 -7.09781,7.09781 -7.58145,19.7117 -6.96599,28.08308 -1.29617,-0.19791 -2.08784,-0.3516 -2.15386,-0.3516 l -0.26388,-0.066 c -1.14251,-0.21965 -3.955203,-0.74743 -7.801003,-1.09904 -0.39584,-9.22924 0.65897,-24.28122 10.042583,-33.68703 9.55915,-9.559144 24.56718,-10.701615 35.48912,-9.976552 5.38421,0.329856 9.16322,1.09902 9.91073,1.27443 0.61549,0.131983 2.26328,0.439319 4.6367,0.724923 6.85659,0.835144 19.64453,1.384648 28.25965,-4.131371 2.04352,-1.318668 4.65836,-1.076534 6.30693,0.549516 0.7909,0.856852 1.71375,2.285708 1.51658,4.153247 -0.15444,1.561571 -1.01131,2.945527 -2.35174,3.780567 z"
   fill="#ffffff"
   id="path1770"
   style="fill:#e6e6e6;fill-opacity:1;stroke:none;stroke-width:4.36634;stroke-miterlimit:4;stroke-dasharray:none;stroke-opacity:1"
   inkscape:label="dna" />
	
	
<text
   xml:space="preserve"
   style="font-weight:bold;font-size:128px;line-height:0.8;font-family:Sans;-inkscape-font-specification:'Sans, Bold';letter-spacing:-0.52px;word-spacing:-0.42px;fill:#008aff;fill-opacity:1;stroke:#000000;stroke-width:0.1"
   x="222.88802"
   y="159.8125"
   id="text3"><tspan
     sodipodi:role="line"
     x="222.88802"
     y="159.8125"
     id="tspan4"
     style="font-size:128px;fill:#008aff;fill-opacity:1">ngx-biocomp-up</tspan></text></g>
</svg>
