<?xml version="1.0" encoding="UTF-8" standalone="no"?>
<!-- Generator: Adobe Illustrator 19.1.0, SVG Export Plug-In . SVG Version: 6.00 Build 0)  -->

<svg
   version="1.1"
   id="Layer_1"
   x="0px"
   y="0px"
   viewBox="0 0 250 250"
   style="enable-background:new 0 0 250 250;"
   xml:space="preserve"
   sodipodi:docname="ngx-bio-tools.svg"
   inkscape:version="1.1.2 (0a00cf5339, 2022-02-04)"
   xmlns:inkscape="http://www.inkscape.org/namespaces/inkscape"
   xmlns:sodipodi="http://sodipodi.sourceforge.net/DTD/sodipodi-0.dtd"
   xmlns:xlink="http://www.w3.org/1999/xlink"
   xmlns="http://www.w3.org/2000/svg"
   xmlns:svg="http://www.w3.org/2000/svg"><defs
   id="defs21"><linearGradient
     inkscape:collect="always"
     id="linearGradient16288"><stop
       style="stop-color:#274cf7;stop-opacity:1"
       offset="0"
       id="stop16284" /><stop
       style="stop-color:#3dff3a;stop-opacity:0.78862083"
       offset="1"
       id="stop16286" /></linearGradient><linearGradient
     inkscape:collect="always"
     id="linearGradient3954"><stop
       style="stop-color:#ffffff;stop-opacity:1;"
       offset="0"
       id="stop3950" /><stop
       style="stop-color:#ffffff;stop-opacity:0;"
       offset="1"
       id="stop3952" /></linearGradient><linearGradient
     inkscape:collect="always"
     xlink:href="#linearGradient3954"
     id="linearGradient3956"
     x1="31.900391"
     y1="130"
     x2="218.09961"
     y2="130"
     gradientUnits="userSpaceOnUse" /><linearGradient
     inkscape:collect="always"
     xlink:href="#linearGradient16288"
     id="linearGradient16290"
     x1="216.45503"
     y1="120.99709"
     x2="31.900391"
     y2="120.99709"
     gradientUnits="userSpaceOnUse" /></defs><sodipodi:namedview
   id="namedview19"
   pagecolor="#505050"
   bordercolor="#eeeeee"
   borderopacity="1"
   inkscape:pageshadow="0"
   inkscape:pageopacity="0"
   inkscape:pagecheckerboard="0"
   showgrid="true"
   inkscape:snap-page="true"
   inkscape:snap-bbox="true"
   inkscape:bbox-paths="true"
   inkscape:bbox-nodes="true"
   inkscape:snap-grids="false"
   inkscape:zoom="2.21183"
   inkscape:cx="-31.421945"
   inkscape:cy="152.58858"
   inkscape:window-width="1850"
   inkscape:window-height="1016"
   inkscape:window-x="0"
   inkscape:window-y="0"
   inkscape:window-maximized="1"
   inkscape:current-layer="g16"><inkscape:grid
     type="xygrid"
     id="grid23"
     snapvisiblegridlinesonly="false"
     enabled="true" /></sodipodi:namedview>
<style
   type="text/css"
   id="style2">
	.st0{fill:#FFFFFF;}
	.st1{opacity:0.9;}
</style>
<g
   id="g16"
   inkscape:label="shield"
   style="fill-opacity:1;fill:#e6e6e6"><path
   id="path623"
   style="fill:url(#linearGradient16290);fill-opacity:1"
   class="st0"
   inkscape:label="left"
   d="M 125 30 L 31.900391 63.199219 L 46.099609 186.30078 L 125 230 L 203.90039 186.30078 L 218.09961 63.199219 L 125 30 z M 136.19531 38.873047 C 142.67077 38.873047 147.94141 44.14172 147.94141 50.617188 C 147.94141 57.092647 142.67078 62.363281 136.19531 62.363281 C 130.95381 62.363281 126.50597 58.908553 125 54.158203 C 124.64546 53.039869 124.45117 51.851149 124.45117 50.617188 C 124.45117 49.383224 124.64546 48.194386 125 47.076172 C 126.50597 42.326333 130.95381 38.873047 136.19531 38.873047 z M 136.19531 46.703125 C 134.03854 46.703125 132.28125 48.456034 132.28125 50.617188 C 132.28125 52.778335 134.03854 54.533203 136.19531 54.533203 C 138.35208 54.533203 140.10937 52.778334 140.10938 50.617188 C 140.10938 48.456034 138.35208 46.703125 136.19531 46.703125 z M 116.62109 54.533203 C 118.78224 54.533203 120.53711 56.28251 120.53711 58.447266 C 120.53711 60.612014 118.78226 62.363281 116.62109 62.363281 C 114.45995 62.363281 112.70508 60.612014 112.70508 58.447266 C 112.70508 56.28251 114.45995 54.533203 116.62109 54.533203 z M 163.59961 54.533203 C 171.15523 54.533203 177.30273 60.678732 177.30273 68.234375 C 177.30273 75.790027 171.15523 81.9375 163.59961 81.9375 C 156.04396 81.9375 149.89844 75.790027 149.89844 68.234375 C 149.89844 60.678732 156.04396 54.533203 163.59961 54.533203 z M 163.59961 62.363281 C 160.36186 62.363281 157.72656 64.996642 157.72656 68.234375 C 157.72656 71.47211 160.36186 74.107422 163.59961 74.107422 C 166.83733 74.107422 169.4707 71.47211 169.4707 68.234375 C 169.4707 64.996642 166.83733 62.363281 163.59961 62.363281 z M 124.44922 70.191406 C 124.59562 70.191406 124.83966 70.198419 125 70.199219 C 132.2588 70.233999 153.32227 71.132035 153.32227 80.34375 C 153.32227 84.137546 149.72488 86.500499 145.00391 87.996094 L 145.00391 111.88867 C 163.77149 120.00847 176.19922 138.75226 176.19922 159.375 C 176.19922 187.72646 153.28226 210.81555 125 211.11328 C 124.81582 211.11528 124.63385 211.12695 124.44922 211.12695 C 95.913128 211.12695 72.697266 187.91224 72.697266 159.38086 C 72.697266 138.75278 85.128728 120.00789 103.89648 111.89258 L 103.89648 88 C 99.175508 86.50437 95.576172 84.141446 95.576172 80.347656 C 95.576172 70.928102 117.67497 70.191406 124.44922 70.191406 z M 124.45117 78.021484 C 115.39694 78.021484 108.95242 79.212346 105.57031 80.347656 C 108.95163 81.483016 115.39694 82.673828 124.45117 82.673828 C 124.64852 82.673828 124.80514 82.65737 125 82.65625 C 133.74534 82.60609 140.02302 81.458211 143.33203 80.347656 C 140.0244 79.237028 133.74595 78.0893 125 78.039062 C 124.80512 78.037963 124.64853 78.021484 124.45117 78.021484 z M 111.72656 89.679688 L 111.72656 114.53516 C 111.72656 116.17502 110.70663 117.63941 109.17188 118.20703 C 94.38534 123.67529 83.806228 136.76114 81.179688 151.99414 C 99.339586 144.61382 113.16297 144.90481 125 147.37891 C 130.31707 148.49024 135.23347 150.03902 139.96094 151.53516 C 149.23914 154.47122 158.07126 157.22345 168.23828 156.02148 C 166.93072 139.0937 155.80483 124.15762 139.73047 118.20703 C 138.19576 117.6394 137.17578 116.17581 137.17578 114.53516 L 137.17578 89.679688 C 132.33954 90.341942 127.73117 90.469707 125 90.482422 C 124.85505 90.483097 124.58453 90.498047 124.45117 90.498047 C 121.80506 90.498047 116.81946 90.376396 111.72656 89.679688 z M 124.45117 101.51172 C 124.6391 101.51172 124.81914 101.54286 125 101.56836 C 126.89902 101.83683 128.36523 103.44926 128.36523 105.42578 C 128.36523 107.4023 126.89905 109.01642 125 109.28516 C 124.81916 109.31076 124.63908 109.33984 124.45117 109.33984 C 122.29004 109.33984 120.53711 107.59052 120.53711 105.42578 C 120.53711 103.26102 122.29005 101.51172 124.45117 101.51172 z M 128.36523 121.08398 C 130.52636 121.08398 132.28125 122.83526 132.28125 125 C 132.28125 127.16477 130.52635 128.91602 128.36523 128.91602 C 126.92394 128.91602 125.67909 128.12761 125 126.9668 C 124.66082 126.38702 124.45117 125.72107 124.45117 125 C 124.45117 124.27894 124.66082 123.61298 125 123.0332 C 125.67909 121.87239 126.92394 121.08398 128.36523 121.08398 z M 112.70508 128.91602 C 114.86622 128.91602 116.62109 130.66536 116.62109 132.83008 C 116.62109 134.99484 114.86622 136.74414 112.70508 136.74414 C 110.54392 136.74414 108.79297 134.99484 108.79297 132.83008 C 108.79297 130.66536 110.54392 128.91602 112.70508 128.91602 z M 109.52344 153.63867 C 101.25138 153.75947 91.873366 155.65845 80.603516 160.74023 C 81.330106 184.32636 100.69591 203.29883 124.45117 203.29883 C 124.6362 203.29882 124.81551 203.27574 125 203.27344 C 147.42382 202.99372 165.85347 185.84924 168.13281 163.94727 C 166.50094 164.10751 164.89989 164.18555 163.33398 164.18555 C 153.96651 164.18555 145.67774 161.55819 137.60156 159.00195 C 133.50025 157.7036 129.35451 156.40281 125 155.40234 C 120.18282 154.29558 115.10944 153.55709 109.52344 153.63867 z " />
	
	
</g>
</svg>
