<?xml version="1.0" standalone="no"?>
<!DOCTYPE svg PUBLIC "-//W3C//DTD SVG 20010904//EN"
 "http://www.w3.org/TR/2001/REC-SVG-20010904/DTD/svg10.dtd">
<svg version="1.0" xmlns="http://www.w3.org/2000/svg"
 width="700.000000pt" height="700.000000pt" viewBox="0 0 700.000000 700.000000"
 preserveAspectRatio="xMidYMid meet">
<metadata>
Created by potrace 1.14, written by Peter Selinger 2001-2017
</metadata>
<g transform="translate(0.000000,700.000000) scale(0.100000,-0.100000)"
fill="#000000" stroke="none">
<path d="M2975 5974 c-286 -102 -803 -287 -1150 -411 -678 -242 -731 -261
-845 -300 -78 -27 -90 -36 -85 -62 3 -16 15 -116 20 -161 8 -76 21 -193 30
-260 3 -19 7 -62 11 -95 3 -33 7 -71 9 -85 2 -14 6 -50 10 -80 3 -30 8 -71 10
-90 2 -19 7 -60 10 -90 3 -30 10 -89 15 -130 5 -41 12 -100 15 -130 6 -63 15
-134 20 -170 2 -14 7 -56 10 -95 4 -38 8 -77 10 -85 2 -8 7 -44 10 -80 4 -36
8 -76 10 -90 2 -14 7 -50 10 -80 3 -30 8 -71 10 -90 2 -19 7 -60 10 -90 3 -30
10 -91 16 -135 16 -130 18 -147 24 -205 3 -30 7 -71 10 -90 2 -19 7 -60 10
-90 4 -30 8 -66 10 -80 2 -14 7 -56 10 -95 4 -38 8 -72 10 -75 1 -3 6 -41 10
-84 4 -43 8 -86 10 -95 1 -9 6 -47 10 -84 3 -37 8 -76 10 -85 1 -9 6 -51 10
-92 4 -41 9 -83 11 -94 2 -10 6 -49 10 -86 12 -128 11 -127 89 -169 68 -36
227 -124 500 -276 72 -40 157 -87 190 -105 33 -18 137 -76 230 -128 200 -112
227 -127 320 -177 39 -21 104 -57 145 -80 41 -23 208 -116 370 -205 162 -90
313 -173 335 -186 l41 -24 49 27 c28 14 53 30 56 35 3 5 8 9 10 8 12 -4 38 14
32 23 -3 5 -1 7 5 4 14 -9 43 3 36 14 -3 5 2 6 10 3 8 -3 24 4 35 15 12 12 23
21 26 21 3 0 10 0 16 0 5 0 7 5 3 12 -4 7 -3 8 5 4 6 -4 17 -3 24 2 7 6 41 26
77 44 90 47 203 109 215 118 12 8 101 58 163 90 23 12 42 27 42 33 0 6 3 8 6
4 7 -6 115 51 126 67 4 6 8 7 8 3 0 -5 13 1 29 12 15 11 31 18 35 14 3 -3 6
-1 6 5 0 7 7 12 15 12 8 0 15 5 15 11 0 5 4 8 9 5 5 -3 14 1 21 9 7 8 16 12
21 9 5 -3 9 0 9 5 0 6 6 11 13 11 7 0 23 9 34 19 12 11 23 17 26 15 3 -3 22 5
44 19 21 13 75 43 121 68 59 32 81 48 76 59 -4 12 -3 12 7 3 9 -9 18 -8 38 6
14 9 43 25 64 35 20 9 37 21 37 26 0 6 3 9 8 8 4 -1 20 4 37 11 24 10 27 14
15 23 -12 8 -11 9 3 4 12 -4 50 11 104 41 46 27 101 57 121 68 20 11 40 25 44
30 5 7 8 7 8 0 0 -5 7 -1 15 9 8 11 15 16 15 12 0 -6 57 21 70 34 3 3 21 13
40 23 69 36 119 63 132 74 7 6 17 11 23 10 13 -3 26 66 13 74 -6 4 -6 8 -1 10
16 6 25 69 10 69 -8 0 -9 2 -1 8 6 4 15 36 19 72 12 107 14 132 23 203 6 46 5
67 -2 67 -6 0 -5 4 3 9 8 5 12 19 9 35 -3 14 -2 26 3 26 4 0 7 8 7 18 0 9 3
44 7 77 4 33 8 80 10 105 2 25 4 45 5 45 1 0 3 8 5 18 2 9 -2 17 -8 17 -8 0
-8 3 1 8 7 5 13 35 15 75 1 37 5 67 9 67 5 0 6 10 4 23 -2 12 0 34 5 50 4 15
4 25 0 23 -4 -3 -8 1 -8 9 0 8 4 12 8 10 4 -3 9 13 11 35 2 23 -1 40 -7 40 -5
0 -5 4 2 8 7 4 14 37 17 74 2 36 6 70 9 75 3 4 5 28 4 53 0 25 3 54 6 65 6 19
10 53 22 165 4 30 9 58 12 62 2 5 -1 16 -9 25 -9 12 -9 15 0 9 9 -5 12 3 13
31 1 41 5 73 15 143 4 25 7 65 8 90 1 25 4 47 7 50 12 10 17 110 5 110 -8 0
-8 2 0 8 17 11 22 35 13 54 -5 9 -5 19 -1 22 8 4 14 47 16 113 0 18 5 33 9 33
5 0 6 3 4 8 -3 4 -2 28 2 54 6 33 4 45 -3 41 -6 -4 -5 1 2 10 8 9 11 20 9 25
-3 4 -2 14 3 22 5 8 4 22 -2 33 -6 11 -6 17 0 13 5 -3 12 23 16 62 4 37 9 90
13 117 3 28 7 69 7 92 1 24 4 43 7 43 3 0 6 7 6 15 0 8 -5 15 -11 15 -7 0 -7
3 0 8 7 4 15 36 19 72 13 130 14 142 21 162 5 16 3 19 -7 12 -11 -6 -12 -5 -2
7 11 13 14 31 29 179 3 36 8 68 10 71 6 10 -26 20 -38 12 -6 -3 -8 -1 -5 4 4
6 -7 14 -26 18 -34 8 -34 8 -57 18 -8 4 -33 13 -55 21 -22 8 -92 33 -155 55
-63 23 -120 39 -128 36 -7 -2 -11 -1 -8 3 7 11 -113 54 -127 45 -5 -3 -7 -1
-4 4 5 9 -33 23 -58 22 -3 0 -18 7 -33 15 -27 15 -134 55 -162 61 -8 2 -28 8
-43 14 -16 6 -33 8 -39 5 -7 -4 -8 -2 -4 4 4 7 1 12 -9 12 -9 0 -29 7 -46 15
-16 9 -43 17 -58 18 -16 1 -27 5 -25 8 2 4 -6 9 -19 12 -12 3 -60 19 -107 37
-47 17 -92 33 -100 35 -8 2 -28 8 -43 14 -16 6 -33 8 -39 5 -6 -4 -8 -3 -5 3
5 8 -18 19 -83 38 -3 1 -18 7 -35 14 -16 8 -42 14 -57 15 -14 0 -24 3 -22 5 8
8 -119 52 -134 46 -7 -2 -11 -1 -8 4 3 4 -16 15 -42 24 -26 9 -99 34 -162 57
-63 23 -126 46 -140 50 -14 5 -63 22 -109 39 -46 17 -88 28 -92 25 -5 -3 -9
-1 -9 3 0 5 -33 19 -72 33 -40 13 -78 27 -84 32 -7 5 -25 10 -42 11 -16 1 -28
5 -26 8 2 3 -15 12 -37 18 -23 7 -46 14 -53 16 -6 2 -245 -79 -531 -181z m801
-256 c3 -4 -1 -5 -10 -4 -8 1 -18 5 -22 8 -3 4 1 5 10 4 8 -1 18 -5 22 -8z
m564 -32 c0 -2 -8 -10 -17 -17 -16 -13 -17 -12 -4 4 13 16 21 21 21 13z m191
-123 c13 -16 12 -17 -3 -4 -10 7 -18 15 -18 17 0 8 8 3 21 -13z m116 2 c0 -8
-4 -12 -9 -9 -5 3 -6 10 -3 15 9 13 12 11 12 -6z m-313 -3 c3 -5 -1 -9 -9 -9
-8 0 -12 4 -9 9 3 4 7 8 9 8 2 0 6 -4 9 -8z m867 -49 c13 -16 12 -17 -3 -4
-10 7 -18 15 -18 17 0 8 8 3 21 -13z m-1631 -97 c0 -2 -8 -10 -17 -17 -16 -13
-17 -12 -4 4 13 16 21 21 21 13z m1877 -11 c0 -8 -4 -12 -9 -9 -5 3 -6 10 -3
15 9 13 12 11 12 -6z m-1547 1 c0 -2 -8 -10 -17 -17 -16 -13 -17 -12 -4 4 13
16 21 21 21 13z m1120 0 c0 -2 -8 -10 -17 -17 -16 -13 -17 -12 -4 4 13 16 21
21 21 13z m-1170 -42 c0 -8 -19 -13 -24 -6 -3 5 1 9 9 9 8 0 15 -2 15 -3z
m-119 -201 c13 -16 12 -17 -3 -4 -10 7 -18 15 -18 17 0 8 8 3 21 -13z m999
-27 c0 -2 -8 -10 -17 -17 -16 -13 -17 -12 -4 4 13 16 21 21 21 13z m-519 -133
c13 -16 12 -17 -3 -4 -10 7 -18 15 -18 17 0 8 8 3 21 -13z m1550 -56 c-10 -9
-11 -8 -5 6 3 10 9 15 12 12 3 -3 0 -11 -7 -18z m-231 -185 c0 -5 -7 -9 -15
-9 -8 0 -12 4 -9 9 3 4 9 8 15 8 5 0 9 -4 9 -8z m-470 -36 c0 -2 -8 -10 -17
-17 -16 -13 -17 -12 -4 4 13 16 21 21 21 13z m-1480 -120 c0 -2 -8 -10 -17
-17 -16 -13 -17 -12 -4 4 13 16 21 21 21 13z m107 -11 c0 -8 -4 -12 -9 -9 -5
3 -6 10 -3 15 9 13 12 11 12 -6z m488 5 c-3 -5 -12 -10 -18 -10 -7 0 -6 4 3
10 19 12 23 12 15 0z m1645 -234 c0 -2 -8 -10 -17 -17 -16 -13 -17 -12 -4 4
13 16 21 21 21 13z m-855 -86 c3 -5 1 -10 -4 -10 -6 0 -11 5 -11 10 0 6 2 10
4 10 3 0 8 -4 11 -10z m95 -34 c0 -2 -8 -10 -17 -17 -16 -13 -17 -12 -4 4 13
16 21 21 21 13z m-245 -226 c-3 -5 -12 -10 -18 -10 -7 0 -6 4 3 10 19 12 23
12 15 0z m200 -140 c3 -6 -1 -7 -9 -4 -18 7 -21 14 -7 14 6 0 13 -4 16 -10z
m-285 -24 c0 -2 -8 -10 -17 -17 -16 -13 -17 -12 -4 4 13 16 21 21 21 13z m480
0 c0 -2 -8 -10 -17 -17 -16 -13 -17 -12 -4 4 13 16 21 21 21 13z m-560 -216
c0 -5 -2 -10 -4 -10 -3 0 -8 5 -11 10 -3 6 -1 10 4 10 6 0 11 -4 11 -10z
m1114 -38 c3 -5 -1 -9 -9 -9 -8 0 -12 4 -9 9 3 4 7 8 9 8 2 0 6 -4 9 -8z
m-1281 -97 c-3 -9 -8 -14 -10 -11 -3 3 -2 9 2 15 9 16 15 13 8 -4z m325 -70
c-3 -3 -9 2 -12 12 -6 14 -5 15 5 6 7 -7 10 -15 7 -18z m593 -42 c13 -16 12
-17 -3 -4 -17 13 -22 21 -14 21 2 0 10 -8 17 -17z m-436 -393 c3 -5 1 -10 -4
-10 -6 0 -11 5 -11 10 0 6 2 10 4 10 3 0 8 -4 11 -10z m95 -34 c0 -2 -8 -10
-17 -17 -16 -13 -17 -12 -4 4 13 16 21 21 21 13z m384 -92 c3 -8 2 -12 -4 -9
-6 3 -10 10 -10 16 0 14 7 11 14 -7z m-1803 -41 c13 -16 12 -17 -3 -4 -17 13
-22 21 -14 21 2 0 10 -8 17 -17z m564 -1 c-3 -3 -11 0 -18 7 -9 10 -8 11 6 5
10 -3 15 -9 12 -12z m1365 -56 c0 -2 -8 -10 -17 -17 -16 -13 -17 -12 -4 4 13
16 21 21 21 13z m-1955 -16 c-3 -5 -12 -10 -18 -10 -7 0 -6 4 3 10 19 12 23
12 15 0z m1990 -80 c3 -5 1 -10 -4 -10 -6 0 -11 5 -11 10 0 6 2 10 4 10 3 0 8
-4 11 -10z m-1155 -224 c0 -2 -8 -10 -17 -17 -16 -13 -17 -12 -4 4 13 16 21
21 21 13z m-600 -120 c0 -2 -8 -10 -17 -17 -16 -13 -17 -12 -4 4 13 16 21 21
21 13z m1001 -53 c13 -16 12 -17 -3 -4 -17 13 -22 21 -14 21 2 0 10 -8 17 -17z
m-641 -77 c0 -2 -7 -7 -16 -10 -8 -3 -12 -2 -9 4 6 10 25 14 25 6z m1000 -110
c0 -2 -8 -10 -17 -17 -16 -13 -17 -12 -4 4 13 16 21 21 21 13z m-1200 -50 c0
-3 -4 -8 -10 -11 -5 -3 -10 -1 -10 4 0 6 5 11 10 11 6 0 10 -2 10 -4z m1280
-6 c0 -5 -2 -10 -4 -10 -3 0 -8 5 -11 10 -3 6 -1 10 4 10 6 0 11 -4 11 -10z
m400 -104 c0 -2 -8 -10 -17 -17 -16 -13 -17 -12 -4 4 13 16 21 21 21 13z
m-2089 -103 c13 -16 12 -17 -3 -4 -17 13 -22 21 -14 21 2 0 10 -8 17 -17z
m1689 -113 c0 -5 -2 -10 -4 -10 -3 0 -8 5 -11 10 -3 6 -1 10 4 10 6 0 11 -4
11 -10z m-1446 -126 c3 -8 2 -12 -4 -9 -6 3 -10 10 -10 16 0 14 7 11 14 -7z
m536 -28 c0 -2 -8 -10 -17 -17 -16 -13 -17 -12 -4 4 13 16 21 21 21 13z m-530
-126 c0 -5 -2 -10 -4 -10 -3 0 -8 5 -11 10 -3 6 -1 10 4 10 6 0 11 -4 11 -10z
m240 -144 c0 -2 -8 -10 -17 -17 -16 -13 -17 -12 -4 4 13 16 21 21 21 13z"/>
</g>
</svg>
